<?xml version="1.0" encoding="UTF-8" standalone="no"?>
<svg
   xmlns:dc="http://purl.org/dc/elements/1.1/"
   xmlns:cc="http://creativecommons.org/ns#"
   xmlns:rdf="http://www.w3.org/1999/02/22-rdf-syntax-ns#"
   xmlns:svg="http://www.w3.org/2000/svg"
   xmlns="http://www.w3.org/2000/svg"
   width="106.10814mm"
   height="136.0432mm"
   viewBox="0 0 106.10814 136.0432"
   version="1.1"
   id="svg8">
  <defs
     id="defs2" />
  <metadata
     id="metadata5">
    <rdf:RDF>
      <cc:Work
         rdf:about="">
        <dc:format>image/svg+xml</dc:format>
        <dc:type
           rdf:resource="http://purl.org/dc/dcmitype/StillImage" />
        <dc:title></dc:title>
      </cc:Work>
    </rdf:RDF>
  </metadata>
  <g
     id="layer1"
     transform="translate(-43.317179,-75.297983)">
    <path
       fill="currentColor"
       d="m 117.67248,75.297983 c 9.35196,0 16.93333,7.58137 16.93333,16.933333 0,9.351964 -7.58137,16.933334 -16.93333,16.933334 -9.35196,0 -16.93334,-7.58137 -16.93334,-16.933334 0,-9.351963 7.58138,-16.933333 16.93334,-16.933333 m 31.56029,93.709857 -12.7,-50.8 a 6.35,6.35 0 0 0 -6.16029,-4.80986 h -3.00567 c -6.00895,2.76305 -13.12069,2.88237 -19.38867,0 h -3.00566 a 6.35,6.35 0 0 0 -6.160298,4.80986 l -12.7,50.8 c -1.000654,4.00209 2.028296,7.89014 6.160294,7.89014 h 14.816664 v 27.51667 c 0,3.50705 2.84295,6.35 6.35,6.35 h 8.46667 c 3.50705,0 6.35,-2.84295 6.35,-6.35 v -27.51667 h 14.81667 c 4.12512,0 7.16253,-3.8817 6.16029,-7.89014 z"
       id="path847"
       style="fill:#ffffff;stroke-width:0.264583" />
    <path
       fill="currentColor"
       d="m 68.717179,75.87451 c 9.35196,0 16.93333,7.581371 16.93333,16.933333 0,9.351967 -7.58137,16.933337 -16.93333,16.933337 -9.35197,0 -16.93334,-7.58137 -16.93334,-16.933337 0,-9.351962 7.58137,-16.933333 16.93334,-16.933333 m 12.7,38.1 h -3.00567 c -6.00895,2.76304 -13.12069,2.88237 -19.38867,0 h -3.00566 c -7.01411,0 -12.7,5.6859 -12.7,12.7 v 35.98333 c 0,3.50705 2.84294,6.35 6.35,6.35 h 4.23333 v 35.98334 c 0,3.50705 2.84295,6.35 6.35,6.35 h 16.93333 c 3.50706,0 6.35,-2.84295 6.35,-6.35 v -35.98334 h 4.23334 c 3.50705,0 6.35,-2.84295 6.35,-6.35 v -35.98333 c 0,-7.0141 -5.6859,-12.7 -12.7,-12.7 z"
       id="path858"
       style="fill:#ffffff;stroke-width:0.264583" />
  </g>
</svg>
