<?xml version="1.0" encoding="UTF-8" standalone="no"?>
<svg
   xmlns:dc="http://purl.org/dc/elements/1.1/"
   xmlns:cc="http://creativecommons.org/ns#"
   xmlns:rdf="http://www.w3.org/1999/02/22-rdf-syntax-ns#"
   xmlns:svg="http://www.w3.org/2000/svg"
   xmlns="http://www.w3.org/2000/svg"
   xmlns:sodipodi="http://sodipodi.sourceforge.net/DTD/sodipodi-0.dtd"
   xmlns:inkscape="http://www.inkscape.org/namespaces/inkscape"
   width="1445.8563"
   height="1878.4954"
   viewBox="0 0 382.54948 497.01858"
   version="1.1"
   id="svg1133"
   inkscape:version="1.0.2 (e86c8708, 2021-01-15)"
   sodipodi:docname="world.svg">
  <defs
     id="defs1127" />
  <sodipodi:namedview
     id="base"
     pagecolor="#ffffff"
     bordercolor="#666666"
     borderopacity="1.0"
     inkscape:pageopacity="0.0"
     inkscape:pageshadow="2"
     inkscape:zoom="0.35"
     inkscape:cx="634.35677"
     inkscape:cy="716.39053"
     inkscape:document-units="px"
     inkscape:current-layer="layer1"
     inkscape:document-rotation="0"
     showgrid="false"
     units="px"
     fit-margin-top="0"
     fit-margin-left="0"
     fit-margin-right="0"
     fit-margin-bottom="0"
     inkscape:window-width="1252"
     inkscape:window-height="1027"
     inkscape:window-x="0"
     inkscape:window-y="25"
     inkscape:window-maximized="0" />
  <metadata
     id="metadata1130">
    <rdf:RDF>
      <cc:Work
         rdf:about="">
        <dc:format>image/svg+xml</dc:format>
        <dc:type
           rdf:resource="http://purl.org/dc/dcmitype/StillImage" />
        <dc:title></dc:title>
      </cc:Work>
    </rdf:RDF>
  </metadata>
  <g
     inkscape:label="Layer 1"
     inkscape:groupmode="layer"
     id="layer1"
     transform="translate(62.006895,41.378329)">
    <g
       id="g1954"
       transform="matrix(0.68230283,0,0,0.68210564,-65.659796,-50.300166)"
       style="fill:#111d2e;fill-opacity:0.4;stroke:#e6d9c1;stroke-width:0.775673;stroke-miterlimit:4;stroke-dasharray:none;stroke-opacity:1">
      <path
         id="path4163"
         fill="#dddddd"
         stroke="#ffffff"
         stroke-width="0.254105"
         stroke-miterlimit="10"
         d="m 152.41,223.14 -0.12,68.83 3.37,0.6 1.57,-0.96 1.44,1.19 0.36,1.44 4.57,4.57 0.36,1.93 1.57,-1.44 0.73,-1.08 1.2,-0.24 0.36,-1.08 2.29,-0.73 1.2,0.6 v 1.2 l 4.93,5.42 0.12,1.93 2.53,3.97 1.31,3.25 2.29,2.89 4.69,3.13 -0.6,1.31 0.12,1.81 -0.85,2.17 -2.29,1.86 -0.24,1.02 2.53,-1.08 0.49,1.99 -0.85,1.08 0.73,0.91 0.31,1.37 -1.68,0.12 1.37,1.93 1.2,-0.78 0.85,-0.31 1.75,-0.91 0.78,0.78 -1.2,1.62 -0.54,1.25 0.6,2.47 0.42,-1.86 1.37,-0.91 0.49,2.47 -0.24,1.25 1.86,0.67 2.83,-1.81 -0.73,2.17 -2.29,0.96 -0.18,1.62 0.73,0.06 v 2.17 l 2.05,1.44 1.62,0.24 1.57,1.86 -1.93,-0.06 -3.19,-0.96 -1.44,-1.2 -1.57,1.02 1.25,0.96 1.14,0.06 0.49,1.44 2.35,1.2 1.02,1.57 0.6,0.78 1.2,0.54 2.35,2.11 1.68,0.54 1.68,0.91 1.62,0.36 v -1.62 l -1.31,-1.57 -2.11,-1.02 -1.02,-2.83 -2.71,-1.86 0.42,-0.24 1.31,0.49 1.68,1.31 1.02,1.44 1.93,-0.12 1.44,1.37 v 1.31 l 0.85,0.18 0.96,-0.49 0.9,0.18 0.67,0.78 -0.06,0.42 84.47,-0.06 0.85,-1.31 -0.06,-0.91 0.85,0.78 0.24,1.31 0.73,1.08 1.93,0.78 1.93,0.42 1.57,-0.06 0.54,0.42 1.02,0.36 1.44,0.49 3.25,0.42 3.01,-0.06 1.2,0.18 0.96,-1.68 1.14,-0.6 0.67,-0.67 0.31,0.96 0.85,-2.05 1.5,1.02 1.81,0.31 1.14,0.06 1.44,1.81 0.6,1.44 1.25,0.49 h 1.93 l -0.12,1.25 0.96,1.2 0.06,0.78 -0.9,1.14 0.73,0.85 0.6,1.14 1.86,0.73 2.83,0.78 2.83,0.18 1.81,0.49 2.71,0.42 1.14,1.31 0.96,1.37 0.31,1.02 0.96,0.96 -0.9,0.67 -0.67,0.96 -2.35,-1.44 -0.78,-0.85 -0.9,-0.73 -0.6,0.12 0.54,1.44 0.49,1.2 -1.25,1.86 -0.31,2.59 -0.67,1.08 -0.67,0.73 -0.36,1.2 -0.73,1.44 0.24,0.85 -1.31,0.06 -0.31,0.96 1.57,0.06 1.86,-1.57 2.35,-0.67 1.75,-0.06 1.93,-0.18 1.14,-0.85 1.75,-0.18 -1.86,-2.35 1.75,-1.75 2.29,-0.54 3.91,-0.36 2.35,-1.08 5.11,-2.83 10.47,-0.12 0.6,-0.54 1.93,-0.42 1.14,-2.47 1.2,-3.07 1.25,-2.59 0.54,-1.25 1.02,0.12 1.86,-0.67 2.17,0.67 0.36,3.67 -0.31,4.02 0.73,0.54 0.67,1.62 1.37,-0.18 3.55,-0.6 1.44,-1.37 1.62,-1.31 -0.49,1.75 2.94,0.54 -0.9,0.6 -1.08,-0.12 -3.73,2.29 -1.81,2.11 1.44,2.76 h 1.86 l 2.47,-3.13 2.53,-1.08 h 2.53 l 2.17,-1.75 2.66,-2.23 1.44,-1.14 2.59,-1.99 -1.14,-0.73 0.06,-2.35 -0.9,-0.67 -1.44,2.7 -1.14,1.37 v 1.08 l -2.47,-0.12 -1.68,0.12 -0.12,-0.67 1.02,-0.6 1.14,-1.5 0.9,-1.44 -2.83,0.12 h -2.17 l -2.23,-0.18 0.31,1.02 2.35,2.05 0.96,0.18 0.06,0.91 -2.11,-0.67 -1.75,-1.81 -1.5,-0.67 -0.31,-2.47 0.31,-1.31 -0.54,-1.5 -1.75,-0.6 -0.49,0.54 -1.2,-1.5 0.67,-0.54 1.81,0.42 1.86,-1.57 0.9,-1.5 -0.36,-1.31 -2.66,-1.14 -3.84,0.06 -2.89,1.14 -3.78,2.59 -2.23,1.86 -2.29,2.76 -2.05,2.11 -1.93,0.67 4.2,-3.78 1.37,-3.31 2.11,-2.29 2.89,-2.29 2.11,-0.06 1.99,-3.07 2.41,-1.25 6.36,0.06 -0.06,1.37 -1.68,0.06 1.37,1.08 2.35,1.75 3.31,1.31 1.62,-0.49 -2.71,-1.75 -2.47,-1.25 -1.31,-0.6 -0.06,-1.2 1.99,-0.31 3.49,0.06 1.99,0.6 2.35,-0.54 h 1.93 l 1.44,-0.85 1.14,-2.11 1.93,-1.93 2.35,-0.96 2.05,-0.12 1.02,0.24 -0.18,1.08 -1.62,1.99 -0.18,1.75 0.06,1.37 -1.81,0.6 -0.36,3.07 0.42,1.02 -1.37,0.73 -1.14,1.68 -1.2,0.18 2.59,0.91 -1.81,1.5 -0.9,1.86 2.11,0.06 4.2,-0.24 2.05,0.18 2.53,-0.54 -0.31,1.5 1.31,-0.36 1.14,-0.31 -1.08,1.31 -0.67,1.08 -0.96,0.67 2.05,0.18 1.2,-1.57 0.9,-0.54 1.31,-1.68 0.85,0.12 -0.31,2.17 -0.85,1.93 1.86,-1.81 -0.06,1.99 1.99,0.24 0.9,-3.49 -1.25,-0.31 1.02,-2.17 -2.11,0.36 -0.85,-0.18 0.18,-1.08 1.81,-0.67 0.18,-4.02 -1.44,3.13 -1.08,0.31 0.78,-3.91 -2.59,-0.96 -2.05,1.44 h -1.08 l 0.18,-1.2 -1.57,-0.36 1.14,-1.86 -1.5,-0.49 -0.73,-0.31 -1.68,2.47 0.36,-2.35 0.9,-1.68 0.78,-1.25 0.36,-0.67 0.6,-0.36 0.12,-1.02 -0.73,-0.96 0.49,-0.67 1.44,-0.67 -0.73,-0.49 -1.75,0.24 -1.44,0.78 -0.9,-0.36 1.81,-1.02 1.81,-1.37 0.36,-1.75 -1.25,-0.85 0.73,-1.37 -0.36,-1.37 0.85,-1.02 -1.31,-2.17 -2.35,-0.12 -0.85,1.08 -1.14,0.6 0.24,-1.31 0.96,-1.5 -1.2,-1.37 -2.41,0.31 -1.81,1.08 -0.73,1.86 -1.44,-0.24 -2.17,1.08 0.18,-1.14 1.86,-1.93 3.13,-1.5 2.59,-1.2 0.12,-0.91 -2.23,-1.14 -1.81,-0.31 -0.96,-1.44 -2.47,0.85 -0.96,-1.31 1.02,-1.2 -0.67,-1.37 -1.62,-0.85 -1.93,-1.19 -0.6,-1.62 -2.41,-0.42 0.73,-0.85 -1.99,-0.54 3.31,-0.78 1.31,-1.5 -1.08,-0.96 -1.02,-0.6 -1.02,-0.42 1.2,-1.5 -1.08,-1.2 -1.14,-1.57 h -2.41 l 1.75,-1.99 -1.14,-0.18 -1.08,-0.49 1.99,-0.91 -1.25,-2.05 -2.59,0.54 2.29,-1.57 -0.9,-1.14 -1.14,-1.37 -0.54,-0.49 -0.54,-1.68 -0.42,-1.62 -0.78,-1.14 -0.78,2.05 -1.02,1.93 0.06,1.14 0.18,1.25 -0.96,1.08 -0.85,2.05 -1.37,0.06 -1.62,2.05 -1.93,1.2 -1.68,-0.96 -1.31,-2.41 -4.15,0.12 1.37,-1.5 -0.36,-1.31 -1.02,-1.14 0.67,-1.93 -2.17,-0.73 2.41,-1.25 -0.54,-1.75 0.06,-2.17 0.78,-1.31 -2.05,-0.18 -2.35,-0.42 -3.25,-0.78 0.12,-1.93 -0.9,-1.44 -1.62,-0.91 0.18,-1.19 -0.49,-0.6 -1.5,-0.91 -1.81,-1.14 -2.42,1.19 -0.84,0.91 -1.57,-0.91 -2.05,-0.49 -3.61,-0.96 -2.77,0.18 -0.42,2.53 1.93,2.66 -0.31,1.75 -1.62,3.19 2.17,0.91 -0.49,2.23 0.9,1.5 -0.24,1.75 -0.6,1.68 -1.57,2.05 -2.17,0.85 0.6,3.97 3.13,2.17 1.57,5.18 0.73,4.57 -1.57,3.25 -2.41,4.69 -4.81,1.57 2.17,3.73 0.36,5.18 0.49,3.37 -0.36,2.89 -3.37,1.81 -0.73,1.68 -2.17,-1.57 -0.24,-2.53 -2.05,-1.68 -2.05,-3.49 v -4.93 l -1.31,-2.05 0.85,-4.2 -5.66,-0.6 h -5.05 l -2.76,-3.13 -5.42,-4.57 -5.05,-2.29 -2.89,-1.31 -4.09,1.68 -1.08,-4.69 -1.81,-4.09 -1.57,-2.66 -2.53,-0.24 -0.96,-2.17 -0.12,-4.34 1.31,-4.93 3.01,-5.9 1.93,-3.84 1.08,-2.29 2.29,-0.6 -1.93,-0.96 5.54,-0.12 -1.57,-4.34 2.05,-1.57 2.66,-2.29 3.73,-0.96 4.2,-8.43 -6.02,-1.2 -3.61,-3.61 5.54,2.53 3.73,0.49 3.25,-5.18 -2.29,-2.66 1.68,-0.96 4.2,0.12 0.36,3.01 2.89,-0.96 2.53,-1.2 2.89,-2.76 3.97,-4.34 -2.05,-2.76 -1.93,-3.01 -0.6,-3.84 0.96,0.24 1.81,-2.89 -1.31,-1.57 1.44,-1.57 -2.66,-0.6 -0.6,-2.66 -3.25,-1.57 -2.89,-0.85 -3.73,0.49 0.73,6.02 1.44,0.73 -0.85,2.53 -1.81,0.24 -3.13,9.62 -3.25,1.08 -1.68,-5.54 1.68,-2.89 -3.49,-5.42 -2.41,-1.31 -2.41,2.66 0.73,5.29 -2.05,-6.97 -1.44,-3.01 -1.08,-2.05 -2.17,-1.08 0.24,-2.76 1.68,-0.36 -2.76,-5.9 -1.31,-3.37 -1.44,-3.49 -2.05,-2.05 -1.68,-2.53 2.53,-1.44 -2.29,0.49 2.53,-2.17 0.73,-2.17 -1.08,-2.05 -1.31,-1.08 1.57,-0.73 h 3.97 l 1.68,0.73 2.29,-7.1 2.53,-3.49 0.6,-3.25 -4.2,-0.96 -2.05,0.36 -2.29,-1.81 h -5.9 l -2.17,2.41 3.01,2.41 h -3.61 l -0.12,4.57 0.73,4.57 -0.36,2.05 1.81,1.81 -0.6,2.41 1.08,2.89 -0.6,1.81 -1.08,2.05 -1.08,2.53 0.12,1.57 -1.31,-0.24 -0.85,4.34 1.2,1.31 -1.57,3.25 0.24,2.76 2.53,2.66 2.29,0.85 0.49,1.08 3.25,0.12 -1.81,2.05 -0.6,4.09 2.05,-1.57 0.85,3.37 -2.76,3.73 -2.29,0.6 -1.2,3.13 1.31,2.53 -0.49,1.31 -2.66,-0.96 0.6,-3.97 -0.36,-2.66 -1.93,-0.85 -1.2,-1.81 1.57,0.12 3.01,-1.81 1.2,-0.6 -2.29,-0.96 0.36,-2.89 -2.41,-1.68 -3.25,-3.49 -2.05,1.57 0.96,2.41 -1.93,1.93 -2.53,1.68 3.49,2.89 2.29,-0.36 0.6,1.08 -1.44,0.85 -2.29,1.2 1.08,1.81 0.73,1.08 -1.68,1.19 -6.02,-0.12 -3.49,1.08 -4.2,-1.93 -3.37,-2.41 -2.41,-0.12 -2.05,-3.13 -0.36,-1.68 -1.57,-1.31 -3.13,1.68 -2.89,1.68 -0.96,2.17 3.84,0.85 2.29,-2.89 -0.6,3.49 -2.41,0.96 -0.96,3.61 1.44,4.93 -2.29,-0.12 -1.08,-4.46 -2.76,-0.24 -2.05,-2.53 -4.46,0.24 -3.61,0.49 -3.84,0.49 -5.9,-0.6 1.81,-3.25 3.01,-0.6 -1.31,-3.01 -3.61,-2.41 -4.69,0.24 -4.34,-2.29 -2.05,-1.44 -3.25,-1.57 -3.13,-1.31 -3.25,-1.44 -3.37,-0.12 -0.36,3.37 h -3.25 l 0.96,-2.76 -1.68,-1.08 -0.12,-1.93 -3.37,1.93 -0.12,3.01 -1.2,0.6 -2.53,-4.34 -1.44,-3.49 -2.76,-2.66 -1.81,3.25 2.05,0.85 -2.66,2.53 -2.05,-0.49 0.49,-2.05 h -1.81 l -2.89,2.41 -2.53,1.68 -4.69,1.57 -1.2,1.81 -1.2,-1.81 -0.73,-1.2 -2.29,1.31 -0.96,1.68 1.81,2.29 -0.49,1.81 -3.13,0.12 -3.25,-0.6 -1.93,-1.08 -1.31,-0.96 -1.44,-2.05 -1.93,-0.36 -2.41,-1.31 z"
         style="fill:#111d2e;fill-opacity:0.4;stroke:#e6d9c1;stroke-width:0.775673;stroke-miterlimit:4;stroke-dasharray:none;stroke-opacity:1" />
      <path
         id="path4165"
         fill="#dddddd"
         stroke="#ffffff"
         stroke-width="0.254105"
         stroke-miterlimit="10"
         d="m 343.92,314.36 -1.44,3.25 1.08,2.17 2.71,-3.43 z"
         style="fill:#111d2e;fill-opacity:0.4;stroke:#e6d9c1;stroke-width:0.775673;stroke-miterlimit:4;stroke-dasharray:none;stroke-opacity:1" />
      <path
         id="path4167"
         fill="#dddddd"
         stroke="#ffffff"
         stroke-width="0.254105"
         stroke-miterlimit="10"
         d="m 324.78,255.34 -0.9,3.25 -1.08,7.22 -1.62,2.53 -0.73,2.53 4.52,-1.25 0.18,2.89 3.25,-0.18 1.99,-2.53 2.17,-2.53 0.9,0.91 2.53,1.62 2.89,1.44 3.25,-2.35 -1.81,-1.62 -2.89,0.18 -0.9,-4.34 -4.52,-1.81 -2.17,-2.89 -2.71,0.18 z"
         style="fill:#111d2e;fill-opacity:0.4;stroke:#e6d9c1;stroke-width:0.775673;stroke-miterlimit:4;stroke-dasharray:none;stroke-opacity:1" />
      <path
         id="path4169"
         fill="#dddddd"
         stroke="#ffffff"
         stroke-width="0.254105"
         stroke-miterlimit="10"
         d="m 335.25,275.37 -2.17,1.08 -1.99,-0.36 v 3.43 l 3.43,0.18 1.62,-3.43 z"
         style="fill:#111d2e;fill-opacity:0.4;stroke:#e6d9c1;stroke-width:0.775673;stroke-miterlimit:4;stroke-dasharray:none;stroke-opacity:1" />
      <path
         id="path4171"
         fill="#dddddd"
         stroke="#ffffff"
         stroke-width="0.254105"
         stroke-miterlimit="10"
         d="m 341.93,279.69 0.18,1.99 1.44,2.17 1.08,-3.78 -1.44,-0.54 z"
         style="fill:#111d2e;fill-opacity:0.4;stroke:#e6d9c1;stroke-width:0.775673;stroke-miterlimit:4;stroke-dasharray:none;stroke-opacity:1" />
      <path
         id="path4173"
         fill="#dddddd"
         stroke="#ffffff"
         stroke-width="0.254105"
         stroke-miterlimit="10"
         d="m 355.28,234.74 -2.71,0.9 -1.44,3.43 0.18,2.89 1.25,1.25 3.97,-0.54 1.08,-3.61 0.36,-3.07 z"
         style="fill:#111d2e;fill-opacity:0.4;stroke:#e6d9c1;stroke-width:0.775673;stroke-miterlimit:4;stroke-dasharray:none;stroke-opacity:1" />
      <path
         id="path4175"
         fill="#dddddd"
         stroke="#ffffff"
         stroke-width="0.254105"
         stroke-miterlimit="10"
         d="m 335.07,220.67 h 3.97 l 2.89,2.53 2.17,-0.9 -3.25,-1.44 -2.71,-1.81 5.05,0.36 3.07,1.62 0.18,-3.43 -0.73,-2.17 3.61,1.81 1.25,3.43 1.08,1.81 1.44,1.99 2.71,1.99 -1.99,1.81 v 2.89 l 2.71,-1.62 1.99,0.73 0.9,1.25 1.62,1.08 h 0.54 l 1.44,3.25 1.25,0.91 1.25,5.42 -0.18,2.89 -1.25,1.62 2.71,0.73 2.35,0.18 1.81,-2.7 3.61,3.43 0.54,0.91 -5.42,1.99 -1.44,-2.35 -4.15,-0.36 -1.62,2.17 -1.62,2.53 -0.18,2.17 -2.17,1.81 -4.34,0.54 -4.87,-0.18 v 3.43 l 0.54,3.78 4.34,1.44 2.53,-2.35 2.71,0.36 0.36,-1.44 4.52,1.62 0.36,3.07 2.53,2.17 1.81,1.62 -1.62,1.08 1.99,3.61 2.89,0.18 4.52,2.53 5.05,3.78 5.24,-0.18 -4.87,-6.67 -2.89,-3.97 -1.62,-2.53 4.87,2.17 1.25,1.81 3.43,3.43 5.05,2.35 -1.81,-4.34 v -3.61 -1.99 l -2.53,-3.07 0.18,-1.81 -0.18,-1.44 -5.96,-2.7 -0.18,-3.78 0.36,-1.62 -0.73,-1.44 1.81,-0.18 -2.17,-2.89 2.53,-1.44 2.35,2.53 1.25,0.54 0.9,-1.08 -1.62,3.61 4.52,-3.07 -2.35,4.52 1.62,1.08 2.53,3.25 1.25,1.44 0.73,-3.25 -0.54,-3.61 3.43,1.81 -0.54,-3.78 0.73,-2.53 3.43,-0.36 -1.25,-4.34 -5.42,-0.73 -2.35,0.54 0.54,-4.87 -2.71,-0.73 -1.25,-3.07 -4.52,-0.36 -3.61,-2.17 -2.35,-2.89 2.53,-0.18 -1.99,-4.15 v -1.62 l 2.89,1.08 1.62,-0.18 0.36,-1.62 -2.35,-1.08 -1.62,-0.36 1.62,-0.73 1.62,-0.18 -0.18,-2.71 -3.78,-3.61 -1.08,2.89 -1.62,-1.44 2.35,-2.35 -1.81,-2.53 -1.62,-0.36 -2.35,1.44 0.54,-2.7 -3.07,1.99 1.25,-3.97 -1.81,1.44 -1.08,-0.9 2.53,-2.71 -1.62,-1.44 -3.61,-1.25 -1.08,2.35 -1.44,-1.08 -0.18,-2.35 -2.71,2.35 0.36,-3.07 -0.73,-0.18 0.18,-1.99 h -2.35 l -2.53,0.18 2.71,-2.35 -0.36,-2.17 -1.44,-1.08 h -3.07 l -1.62,-1.08 -3.61,0.36 -0.73,1.44 0.54,2.17 -1.62,0.73 v 3.61 l -1.44,-2.89 0.18,-2.71 h -1.25 l -1.62,0.18 -1.62,3.61 -2.35,1.44 0.9,-4.34 1.08,-1.25 -0.9,0.18 2.53,-2.89 -0.9,-1.44 -0.36,-2.7 -1.44,-1.62 1.08,-0.18 1.44,0.36 1.08,4.15 1.08,0.36 3.43,-1.25 6.49,-0.18 1.25,-1.25 -3.25,-1.25 -1.25,-4.34 h -3.25 l -3.97,-0.36 -3.07,-1.44 -0.18,2.53 1.08,2.17 -2.71,-0.18 -0.18,-3.07 -0.18,-1.08 h -4.34 l -2.17,1.25 -3.07,0.54 2.17,2.53 -3.61,-0.54 0.54,0.9 1.99,1.44 -3.78,-0.18 1.25,1.62 2.35,2.17 -4.87,-1.81 1.99,4.34 -1.25,1.62 2.35,1.62 0.73,1.44 -3.61,-0.73 0.36,1.25 1.25,2.17 1.81,2.35 -0.36,3.25 -0.54,2.17 -0.9,-2.89 -1.08,-1.81 -1.25,-3.61 -1.99,-1.81 0.36,-3.25 -0.18,-2.53 0.36,-5.96 2.71,-2.71 1.08,-2.35 -0.73,-1.81 -4.69,-0.36 -6.85,5.42 -1.44,5.78 -0.9,5.24 0.73,2.7 -0.9,1.99 0.18,2.71 -0.54,1.81 5.78,2.17 1.81,0.9 0.18,1.25 -3.43,-0.36 h -2.53 l 3.78,4.15 1.25,2.17 2.17,-0.54 h 2.71 l 1.08,2.53 1.62,1.08 1.25,-0.9 3.07,1.08 1.08,0.18 1.81,-0.54 z"
         style="fill:#111d2e;fill-opacity:0.4;stroke:#e6d9c1;stroke-width:0.775673;stroke-miterlimit:4;stroke-dasharray:none;stroke-opacity:1" />
      <path
         id="path4177"
         fill="#dddddd"
         stroke="#ffffff"
         stroke-width="0.254105"
         stroke-miterlimit="10"
         d="m 230.57,184.4 -3.78,2.89 -3.43,3.25 -3.43,4.52 -2.17,3.78 -2.89,2.17 -0.54,4.87 -3.78,1.44 -2.89,2.53 -1.99,-2.53 -1.62,-4.52 -4.51,-1.62 1.62,-5.24 0.73,-5.96 1.44,-2.71 v -4.87 l 3.07,-2.89 -3.07,-5.42 5.96,-0.73 2.53,-0.73 3.78,0.73 1.99,3.07 1.81,1.99 1.81,-2.71 2.71,-0.18 3.25,3.07 2.71,3.07 1.81,2.17 z"
         style="fill:#111d2e;fill-opacity:0.4;stroke:#e6d9c1;stroke-width:0.775673;stroke-miterlimit:4;stroke-dasharray:none;stroke-opacity:1" />
      <path
         id="path4179"
         fill="#dddddd"
         stroke="#ffffff"
         stroke-width="0.254105"
         stroke-miterlimit="10"
         d="m 233.82,186.74 -3.07,1.62 -4.15,1.81 -4.15,4.51 -0.54,2.71 1.08,0.36 -2.35,3.07 0.18,2.89 2.71,-0.36 0.18,1.99 5.6,-0.18 1.99,1.08 -4.87,1.62 -4.87,1.08 3.25,3.78 3.78,1.62 5.42,-0.36 2.71,-0.18 2.71,2.53 -0.9,0.9 h -8.13 l -4.52,2.35 2.17,3.25 3.25,2.35 h 4.33 l 1.44,2.35 1.25,3.97 4.15,0.54 5.78,-0.73 3.78,-1.81 3.25,-1.25 3.07,-0.9 2.17,-2.89 3.07,2.53 1.62,2.35 3.97,-0.73 1.08,1.08 5.24,-0.73 -1.25,-2.17 -1.25,-2.17 1.99,-2.71 1.44,2.17 0.54,-2.89 -0.18,-2.89 -4.15,-2.35 -3.61,-4.69 -2.35,-1.62 v -5.6 l -1.25,-4.34 -1.62,-3.07 -0.9,-6.13 2.53,-1.62 0.54,-4.69 -1.25,-1.62 h -6.31 l -0.18,3.07 4.34,3.97 -0.54,0.73 -1.62,-1.25 -3.07,-2.17 -2.89,-1.25 -1.44,2.71 0.9,3.78 -0.18,1.81 -0.54,1.62 -1.25,-2.35 -3.25,-3.25 -1.99,0.36 3.07,3.97 -0.36,1.81 -1.25,-1.44 -3.78,0.36 -1.62,-3.25 -1.81,-0.73 -3.07,-0.9 -1.99,-1.81 -0.54,-1.44 z"
         style="fill:#111d2e;fill-opacity:0.4;stroke:#e6d9c1;stroke-width:0.775673;stroke-miterlimit:4;stroke-dasharray:none;stroke-opacity:1" />
      <path
         id="path4181"
         fill="#dddddd"
         stroke="#ffffff"
         stroke-width="0.254105"
         stroke-miterlimit="10"
         d="m 286.16,179.89 -1.81,0.9 -3.97,0.73 -0.73,-1.44 -1.62,0.9 -0.9,1.62 -0.54,1.44 1.81,2.17 -1.99,1.25 2.53,-0.36 0.9,1.44 -0.9,1.99 -0.54,2.35 -1.62,0.54 -2.53,-3.07 h -1.44 v 3.78 l 0.73,2.71 2.89,1.81 1.81,0.18 1.44,2.17 1.25,3.25 1.44,2.35 h 1.81 l 1.81,-1.81 -0.9,-2.89 2.71,3.07 1.62,-0.73 1.25,-1.99 0.9,-2.17 -1.25,-2.35 0.73,-2.89 v -1.81 l -2.35,0.18 -1.08,-1.25 -0.73,-0.73 0.73,-1.99 -0.36,-2.35 1.81,-0.9 -0.36,-1.62 h -0.54 l 1.08,-1.25 -0.36,-2.71 -2.17,-0.54 h -0.58 v 0.02 z"
         style="fill:#111d2e;fill-opacity:0.4;stroke:#e6d9c1;stroke-width:0.775673;stroke-miterlimit:4;stroke-dasharray:none;stroke-opacity:1" />
      <path
         id="path4183"
         fill="#dddddd"
         stroke="#ffffff"
         stroke-width="0.254105"
         stroke-miterlimit="10"
         d="m 293.74,158.95 -1.25,2.89 -1.25,1.99 -0.73,2.71 5.42,4.87 3.07,-0.54 1.25,-2.71 -0.18,-5.42 -2.53,-2.7 z"
         style="fill:#111d2e;fill-opacity:0.4;stroke:#e6d9c1;stroke-width:0.775673;stroke-miterlimit:4;stroke-dasharray:none;stroke-opacity:1" />
      <path
         id="path4185"
         fill="#dddddd"
         stroke="#ffffff"
         stroke-width="0.254105"
         stroke-miterlimit="10"
         d="m 291.57,140 -1.81,0.73 1.08,3.25 -1.44,0.36 1.62,3.07 1.44,0.54 -0.36,1.25 1.81,0.9 -0.18,1.25 3.07,-1.25 3.43,1.25 v -1.62 l 1.08,0.18 0.73,3.07 0.73,2.35 -0.18,2.35 1.62,1.44 0.18,0.73 -0.9,0.9 -0.36,1.99 0.18,2.7 0.73,0.36 v 2.71 l 3.07,1.99 2.89,0.18 0.54,1.25 2.35,0.18 0.36,-1.81 1.81,-0.18 1.08,-0.9 -0.73,3.07 h 4.34 l 2.35,-0.54 1.44,0.9 1.99,-1.08 0.73,-0.18 0.9,1.44 1.81,-0.73 h 2.89 l 0.18,-4.34 1.62,2.71 0.36,1.44 2.71,-0.18 2.35,1.25 2.53,-0.36 0.54,-0.54 v -2.71 l 2.53,-0.9 -0.73,-2.35 -2.71,-0.36 1.44,-0.9 1.25,-1.99 -1.62,-2.89 -2.71,-1.44 -1.25,-1.81 -4.87,0.18 -1.99,0.9 -1.62,-0.18 -2.17,1.99 -1.81,1.44 -1.81,-1.08 -2.35,-0.18 -0.73,1.99 -2.17,-0.9 -2.17,-1.25 -2.35,1.44 -1.25,-0.73 0.36,-2.17 -0.18,-1.25 -1.99,-0.54 -2.53,-0.36 -1.44,-1.99 0.54,-1.25 -0.18,-1.25 3.78,0.73 1.62,-0.18 v -1.44 l -2.89,-1.62 -0.9,-0.18 0.9,-1.25 -2.71,-2.53 -1.44,-0.18 -2.35,1.08 -0.18,0.54 -0.9,-1.08 -1.62,-3.07 -1.81,-0.9 -4.15,0.18 -2.71,-1.08 z"
         style="fill:#111d2e;fill-opacity:0.4;stroke:#e6d9c1;stroke-width:0.775673;stroke-miterlimit:4;stroke-dasharray:none;stroke-opacity:1" />
      <path
         id="path4187"
         fill="#dddddd"
         stroke="#ffffff"
         stroke-width="0.254105"
         stroke-miterlimit="10"
         d="m 283.99,146.49 -1.44,1.44 -2.53,-1.25 -2.53,0.18 -0.18,2.71 2.53,3.07 -0.36,2.17 -3.43,-3.61 -2.17,-2.17 -1.08,1.25 1.08,3.78 0.18,1.99 -1.81,-1.08 -0.36,-2.17 h -2.17 v -2.53 l -1.25,-2.89 -1.81,-0.73 -0.73,2.53 2.53,2.53 -2.53,0.73 2.17,1.44 0.54,0.36 -1.08,1.99 h 3.07 l 0.36,0.9 1.81,-0.36 -0.54,3.07 2.89,-0.18 1.25,-0.9 2.71,0.18 2.71,-0.73 -2.89,2.89 -2.35,2.35 2.89,3.97 5.05,-0.36 0.9,-2.53 0.9,-2.7 -0.36,-1.81 1.62,-0.18 -0.18,-3.61 -0.36,-1.08 -0.18,-2.35 -0.9,-3.07 -0.18,-1.44 z"
         style="fill:#111d2e;fill-opacity:0.4;stroke:#e6d9c1;stroke-width:0.775673;stroke-miterlimit:4;stroke-dasharray:none;stroke-opacity:1" />
      <path
         id="path4189"
         fill="#dddddd"
         stroke="#ffffff"
         stroke-width="0.254105"
         stroke-miterlimit="10"
         d="m 259.8,154.62 -3.07,2.53 -2.71,-2.35 0.36,-3.25 0.54,-3.43 -2.17,-4.34 -2.89,2.71 -1.44,2.53 1.81,3.25 0.73,2.17 -1.25,2.17 2.53,1.81 -0.9,2.17 -4.34,-1.08 -2.17,-1.44 -2.17,-2.71 -2.17,-1.44 -1.08,-2.89 h -1.99 l -2.89,-0.73 -0.73,-1.99 h -3.78 l 0.73,3.61 0.9,0.18 -2.89,0.36 -1.44,2.53 0.73,0.54 2.71,-0.36 0.73,1.08 -3.25,0.36 -1.62,1.25 0.18,1.25 2.71,-0.36 2.53,-0.36 -2.71,3.25 -5.42,-0.36 0.54,3.43 5.42,0.36 0.36,2.17 2.71,-0.36 1.44,-1.81 1.25,-0.18 0.36,-2.89 1.99,3.78 1.99,-1.44 1.44,-0.54 1.08,1.44 3.25,-1.08 v 3.07 l -4.34,-0.18 -2.53,-0.18 -2.53,2.89 -0.18,2.35 1.99,0.73 3.43,0.73 2.71,-2.17 2.89,-0.54 3.25,-2.89 3.25,-1.62 2.35,0.54 3.78,0.73 1.25,-3.07 1.08,-3.61 0.73,-2.53 -1.25,-3.07 z"
         style="fill:#111d2e;fill-opacity:0.4;stroke:#e6d9c1;stroke-width:0.775673;stroke-miterlimit:4;stroke-dasharray:none;stroke-opacity:1" />
      <path
         id="path4191"
         fill="#dddddd"
         stroke="#ffffff"
         stroke-width="0.254105"
         stroke-miterlimit="10"
         d="m 266.83,161.84 -1.99,2.17 0.73,1.99 h 2.53 l 0.18,-2.17 z"
         style="fill:#111d2e;fill-opacity:0.4;stroke:#e6d9c1;stroke-width:0.775673;stroke-miterlimit:4;stroke-dasharray:none;stroke-opacity:1" />
      <path
         id="path4193"
         fill="#dddddd"
         stroke="#ffffff"
         stroke-width="0.254105"
         stroke-miterlimit="10"
         d="m 229.84,136.02 -3.07,-1.99 -0.36,1.44 -2.17,1.25 -4.69,-0.36 -1.44,3.78 -1.08,1.81 -2.89,2.35 -0.9,2.71 -0.9,1.44 -3.25,0.9 v 2.89 l 0.54,1.25 0.73,2.53 1.81,-3.43 1.25,2.89 2.17,-2.53 2.35,1.62 2.35,-0.73 -1.25,-3.97 2.89,1.44 -0.73,-3.25 0.18,-2.35 1.81,-1.81 0.9,1.99 0.73,3.43 1.08,1.25 0.54,-4.34 1.44,-0.73 0.73,-1.25 -0.9,-2.53 0.9,-2.17 1.99,-0.73 0.54,-1.99 -1.25,-1.44 z"
         style="fill:#111d2e;fill-opacity:0.4;stroke:#e6d9c1;stroke-width:0.775673;stroke-miterlimit:4;stroke-dasharray:none;stroke-opacity:1" />
      <path
         id="path4195"
         fill="#dddddd"
         stroke="#ffffff"
         stroke-width="0.254105"
         stroke-miterlimit="10"
         d="m 224.42,152.81 -3.43,3.25 -1.81,1.62 1.44,1.99 2.53,-2.71 z"
         style="fill:#111d2e;fill-opacity:0.4;stroke:#e6d9c1;stroke-width:0.775673;stroke-miterlimit:4;stroke-dasharray:none;stroke-opacity:1" />
      <path
         id="path4197"
         fill="#dddddd"
         stroke="#ffffff"
         stroke-width="0.254105"
         stroke-miterlimit="10"
         d="m 233.09,142.88 0.54,1.81 h 4.15 l -0.73,-1.62 z"
         style="fill:#111d2e;fill-opacity:0.4;stroke:#e6d9c1;stroke-width:0.775673;stroke-miterlimit:4;stroke-dasharray:none;stroke-opacity:1" />
      <path
         id="path4199"
         fill="#dddddd"
         stroke="#ffffff"
         stroke-width="0.254105"
         stroke-miterlimit="10"
         d="m 234.18,125.19 -0.54,1.99 1.99,3.61 0.36,-2.71 z"
         style="fill:#111d2e;fill-opacity:0.4;stroke:#e6d9c1;stroke-width:0.775673;stroke-miterlimit:4;stroke-dasharray:none;stroke-opacity:1" />
      <path
         id="path4201"
         fill="#dddddd"
         stroke="#ffffff"
         stroke-width="0.254105"
         stroke-miterlimit="10"
         d="m 241.21,117.97 -3.07,2.71 -0.18,1.08 3.25,-0.36 1.99,1.62 1.25,-1.81 2.17,0.73 2.17,-1.44 v -2.89 l -1.25,-1.08 -1.62,-1.25 -3.61,2.53 z"
         style="fill:#111d2e;fill-opacity:0.4;stroke:#e6d9c1;stroke-width:0.775673;stroke-miterlimit:4;stroke-dasharray:none;stroke-opacity:1" />
      <path
         id="path4203"
         fill="#dddddd"
         stroke="#ffffff"
         stroke-width="0.254105"
         stroke-miterlimit="10"
         d="m 248.25,125.56 -5.05,0.73 -2.35,0.9 -2.71,1.99 0.9,2.7 0.54,3.61 h 3.07 l 0.73,0.9 4.87,-4.15 v -2.35 l -2.89,-0.54 2.17,-1.62 1.44,-1.44 z"
         style="fill:#111d2e;fill-opacity:0.4;stroke:#e6d9c1;stroke-width:0.775673;stroke-miterlimit:4;stroke-dasharray:none;stroke-opacity:1" />
      <path
         id="path4205"
         fill="#dddddd"
         stroke="#ffffff"
         stroke-width="0.254105"
         stroke-miterlimit="10"
         d="m 266.12,105.35 h -1.99 l -3.97,1.25 0.73,3.07 1.99,0.73 1.25,0.9 -0.18,2.71 3.61,-2.89 0.36,2.35 -0.73,1.44 1.25,1.99 -2.17,2.17 -1.81,-0.73 1.44,5.05 2.35,-1.44 1.81,-1.44 1.08,0.54 1.08,1.08 2.35,0.18 2.17,2.53 1.99,1.81 0.54,2.35 3.97,-1.44 -1.44,-4.34 -1.62,-2.53 0.18,-3.43 -0.18,-2.35 -1.44,-2.35 -2.89,-0.54 v -1.25 l -1.08,-1.81 -2.71,-2.17 -1.62,2.17 -0.73,1.25 -0.36,-3.61 -1.44,-0.9 z"
         style="fill:#111d2e;fill-opacity:0.4;stroke:#e6d9c1;stroke-width:0.775673;stroke-miterlimit:4;stroke-dasharray:none;stroke-opacity:1" />
      <path
         id="path4207"
         fill="#dddddd"
         stroke="#ffffff"
         stroke-width="0.254105"
         stroke-miterlimit="10"
         d="m 261.43,130.43 2.71,3.97 0.54,3.61 3.07,0.9 -0.36,-3.43 -2.17,-2.71 z"
         style="fill:#111d2e;fill-opacity:0.4;stroke:#e6d9c1;stroke-width:0.775673;stroke-miterlimit:4;stroke-dasharray:none;stroke-opacity:1" />
      <path
         id="path4209"
         fill="#dddddd"
         stroke="#ffffff"
         stroke-width="0.254105"
         stroke-miterlimit="10"
         d="m 272.61,127.73 0.18,1.99 2.71,-0.54 0.9,-0.9 -2.35,-1.25 z"
         style="fill:#111d2e;fill-opacity:0.4;stroke:#e6d9c1;stroke-width:0.775673;stroke-miterlimit:4;stroke-dasharray:none;stroke-opacity:1" />
      <path
         id="path4211"
         fill="#dddddd"
         stroke="#ffffff"
         stroke-width="0.254105"
         stroke-miterlimit="10"
         d="m 285.79,113.28 -0.18,3.25 0.18,2.35 -0.54,0.18 2.89,5.05 1.25,-0.73 -0.36,1.62 -2.35,0.36 1.25,3.25 1.44,1.81 1.99,-2.17 h 3.97 l 0.73,-2.53 -1.62,-2.35 1.99,-1.44 -0.36,-1.81 -2.53,-2.17 -0.54,-0.73 -1.44,-2.35 -4.69,-1.62 z"
         style="fill:#111d2e;fill-opacity:0.4;stroke:#e6d9c1;stroke-width:0.775673;stroke-miterlimit:4;stroke-dasharray:none;stroke-opacity:1" />
      <path
         id="path4213"
         fill="#dddddd"
         stroke="#ffffff"
         stroke-width="0.254105"
         stroke-miterlimit="10"
         d="m 298.97,130.43 -2.71,-0.36 h -3.25 l -0.18,2.17 3.43,2.71 h 4.34 l 0.54,-3.07 z"
         style="fill:#111d2e;fill-opacity:0.4;stroke:#e6d9c1;stroke-width:0.775673;stroke-miterlimit:4;stroke-dasharray:none;stroke-opacity:1" />
      <path
         id="path4215"
         fill="#dddddd"
         stroke="#ffffff"
         stroke-width="0.254105"
         stroke-miterlimit="10"
         d="m 308.71,131.87 0.18,2.89 2.53,3.43 1.25,-1.81 -0.54,-3.07 z"
         style="fill:#111d2e;fill-opacity:0.4;stroke:#e6d9c1;stroke-width:0.775673;stroke-miterlimit:4;stroke-dasharray:none;stroke-opacity:1" />
      <path
         id="path4217"
         fill="#dddddd"
         stroke="#ffffff"
         stroke-width="0.254105"
         stroke-miterlimit="10"
         d="m 304.74,70.5 -3.43,-2.89 h -2.71 l -1.08,0.9 -0.36,1.08 2.35,0.54 1.99,0.9 -1.25,1.62 -2.71,0.18 0.54,1.99 -2.53,-0.18 -0.54,4.69 3.61,1.99 -1.62,1.44 -3.61,-1.99 -0.73,2.53 1.62,2.89 -1.99,1.08 0.36,2.35 1.81,-0.36 0.73,0.9 1.08,1.25 2.89,0.73 -1.08,1.25 -4.34,-1.08 -1.44,-0.73 3.43,6.67 -1.62,1.81 4.34,-0.73 2.71,-1.25 -1.62,3.07 -3.61,0.54 -0.36,2.35 2.35,2.53 3.97,-1.44 1.44,-3.07 1.62,1.44 v 0.73 l 3.61,0.36 -6.13,1.44 6.13,1.25 h 2.17 l -7.03,1.44 -2.71,0.73 -0.18,2.35 1.44,1.62 0.9,1.99 -3.97,-0.18 2.35,2.53 3.43,0.36 -3.07,1.81 3.25,3.07 3.78,1.44 1.62,-0.9 0.9,-1.25 1.62,-1.08 -0.73,-2.71 3.78,4.87 -0.18,-3.97 -0.73,-2.53 1.44,-0.9 -0.18,-4.34 v -0.54 l 1.25,3.43 1.99,-2.17 -0.18,-2.35 h 1.99 l 2.35,-2.35 1.08,-2.71 0.9,-0.9 -1.25,-3.07 -1.99,0.18 -1.25,-1.25 -1.08,-0.9 -1.25,-0.18 0.18,-4.52 0.18,-2.17 -1.08,-0.73 -0.36,-3.97 -1.25,-0.54 -0.73,2.17 0.18,2.35 -1.25,-1.08 -0.73,-1.25 0.18,-1.99 0.9,-2.71 -2.53,-0.73 -2.53,0.54 -2.35,-0.18 1.99,-2.35 -1.62,-2.53 -1.99,-3.43 -0.54,-1.62 0.18,-1.62 z"
         style="fill:#111d2e;fill-opacity:0.4;stroke:#e6d9c1;stroke-width:0.775673;stroke-miterlimit:4;stroke-dasharray:none;stroke-opacity:1" />
      <path
         id="path4219"
         fill="#dddddd"
         stroke="#ffffff"
         stroke-width="0.254105"
         stroke-miterlimit="10"
         d="m 324.78,87.83 -3.07,-0.18 -0.18,3.43 0.9,1.99 2.17,0.54 -0.36,1.25 -3.25,-0.73 1.08,3.25 2.53,1.25 2.17,1.44 1.08,3.43 0.54,2.71 2.35,3.25 -1.44,0.9 -0.54,-0.18 -2.53,-0.18 3.97,2.17 3.78,0.54 3.07,-1.08 -0.54,1.81 h -4.52 l 1.99,4.15 -2.17,-1.25 -2.17,-2.71 -3.97,-0.9 -2.89,0.73 -2.17,1.25 -0.18,2.53 v 1.08 l -1.25,2.35 -0.36,2.53 0.73,1.62 2.35,-1.62 1.81,-1.44 -0.18,2.71 2.89,-1.44 0.9,-3.78 1.81,1.08 -0.54,4.34 0.9,0.36 -3.07,0.18 -1.62,1.81 1.44,1.08 0.18,1.44 -0.36,1.99 1.99,1.62 1.99,0.36 2.71,-3.25 1.81,-3.25 -0.54,3.43 -2.89,3.61 -1.08,1.08 h -2.53 l -1.99,-1.62 -2.53,-2.89 -3.97,-1.25 -1.99,1.08 -0.36,2.53 2.17,3.43 1.25,1.08 v 1.62 l -2.89,1.25 -2.71,0.9 -1.08,2.71 0.18,5.6 1.44,-2.53 1.25,-3.25 0.18,4.52 1.81,-0.18 0.9,-1.99 0.36,2.89 1.99,-3.25 0.9,3.07 3.07,1.44 3.43,0.36 -1.99,-3.07 0.36,-0.73 1.25,1.08 0.54,-2.89 2.17,2.35 1.99,0.9 v -4.34 l 3.07,1.62 -0.54,3.07 1.62,-1.08 1.25,0.18 0.73,1.44 0.18,2.89 3.78,-0.54 1.81,-2.89 0.54,-1.81 3.07,-1.08 v -3.07 l -2.71,-0.36 -1.62,-2.89 -0.18,-1.08 -5.42,-0.36 3.07,-1.25 4.34,0.36 2.89,-1.99 -0.36,-3.43 -0.36,-3.61 -0.18,-1.62 4.15,1.62 0.9,-1.44 h 1.08 l 1.44,-0.36 -1.25,-3.25 2.89,-0.9 -0.36,-1.62 -2.71,-1.44 -1.08,-0.9 h 4.69 l 2.17,-1.81 -1.62,-2.35 -2.17,-1.44 -3.78,-0.54 2.53,-1.44 -9.02,-0.9 5.42,-1.25 2.89,-0.73 2.89,1.62 2.35,-0.18 -1.25,-3.07 -5.24,-0.36 -2.17,-1.08 2.71,-0.73 -0.73,-3.07 4.69,1.44 1.99,0.73 1.62,-1.08 1.81,-0.9 -0.18,-3.43 -1.44,-1.44 5.42,1.62 2.71,-0.54 v -2.35 l 0.18,-0.9 -1.62,-2.35 -1.62,-0.18 4.69,-1.99 1.62,-1.62 -0.73,-1.99 1.81,1.08 2.17,-2.71 1.99,-2.89 3.97,-3.25 2.17,-2.89 0.9,-3.43 4.15,-3.43 1.81,-3.97 -0.54,-0.54 -7.41,2.53 -4.87,3.07 -4.34,0.54 7.59,-5.05 1.99,-1.62 -4.69,-0.36 -0.54,-1.99 7.22,0.18 6.31,-2.35 3.07,-1.08 2.71,-3.97 0.36,-1.99 2.71,-3.78 1.08,-3.78 -3.25,-1.81 -1.08,-1.99 -1.99,1.25 -0.9,-4.34 -2.17,-1.81 -0.9,-3.25 -4.34,-0.9 -0.9,3.25 -5.6,0.73 -4.15,1.81 6.85,-5.96 -2.35,-1.44 -6.49,-0.73 -2.17,-0.73 -0.18,-1.81 -3.78,0.18 -1.44,1.81 -0.73,1.44 -1.44,-0.9 -1.44,-2.53 -2.71,2.35 -1.08,1.99 -1.99,-2.17 -1.99,-1.08 -5.42,0.36 -1.08,0.54 2.53,5.6 1.25,3.78 0.36,0.54 -3.25,-3.07 -1.62,-2.53 -1.25,-1.08 -2.17,0.36 -1.25,-0.73 -2.17,-1.25 -2.89,1.25 1.44,2.71 0.36,1.99 1.62,0.54 -2.17,0.73 -1.44,-3.07 -2.18,-0.2 v 2.89 l 2.53,3.07 0.36,2.7 -3.07,-1.44 -3.43,-2.53 -0.36,0.9 0.73,3.07 -0.9,1.81 4.34,2.89 4.52,3.43 0.36,3.61 -0.9,1.08 -3.25,-3.25 -2.17,-2.71 -0.54,-0.9 -3.61,-0.73 -1.99,-2.35 0.73,3.97 -2.53,-3.43 -1.99,-2.17 -1.25,-0.18 -1.44,1.62 0.73,1.99 -2.35,0.9 2.35,3.78 5.24,2.53 h -3.07 L 321.6,52.2 316,51.3 h -1.25 l -2.71,3.25 1.08,1.44 -0.18,1.99 -3.25,-1.62 -2.17,-0.36 -0.9,2.89 -1.44,2.35 0.54,2.35 3.43,-0.54 2.71,-0.54 1.25,2.35 -2.53,1.44 0.36,1.08 3.25,-0.36 -0.18,0.73 -1.99,1.08 3.25,0.9 -2.17,0.9 -1.25,0.54 0.54,2.17 1.08,0.9 3.61,-0.9 3.07,-0.54 1.62,1.99 v 2.35 l -2.89,-0.73 -3.25,-0.18 0.54,2.7 3.07,4.34 1.62,-0.54 1.25,-2.53 0.54,-0.18 1.08,-0.36 -0.9,1.81 0.18,1.25 3.43,0.54 2.17,-0.36 2.71,-0.54 2.35,-2.7 h 1.62 l -2.17,1.99 -1.08,1.25 6.31,-1.25 2.53,-1.62 0.73,-2.53 0.36,-2.35 6.13,-8.13 -4.34,8.13 0.18,1.99 3.43,-1.25 h 2.89 l 5.24,-0.54 -1.44,1.44 -6.13,1.08 -2.71,0.73 -2.53,1.62 -0.73,1.44 h 4.69 l 0.73,-0.18 -3.61,1.25 -3.61,1.25 -0.9,1.62 -5.78,1.44 -1.81,1.25 2.89,3.07 1.25,2.35 2.71,2.71 -0.36,3.07 6.49,0.18 -5.42,1.99 -0.9,-0.73 -3.61,-1.99 v -2.17 l -1.25,-1.44 -2.17,-3.07 -2.35,-2.53 -2.35,-0.9 z"
         style="fill:#111d2e;fill-opacity:0.4;stroke:#e6d9c1;stroke-width:0.775673;stroke-miterlimit:4;stroke-dasharray:none;stroke-opacity:1" />
      <path
         id="path4221"
         fill="#dddddd"
         stroke="#ffffff"
         stroke-width="0.254105"
         stroke-miterlimit="10"
         d="m 180.93,327.62 -1.72,1.81 -1.9,-1.99 -1.54,0.99 1.99,3.78 1.08,0.54 v 1.81 l 2.71,3.34 -1.08,-3.07 -0.18,-2.26 0.28,-1.99 0.64,-1.35 z"
         style="fill:#111d2e;fill-opacity:0.4;stroke:#e6d9c1;stroke-width:0.775673;stroke-miterlimit:4;stroke-dasharray:none;stroke-opacity:1" />
      <path
         id="mx"
         fill="#dddddd"
         stroke="#ffffff"
         stroke-width="0.254105"
         stroke-miterlimit="10"
         d="m 233.97,425.88 0.24,3.84 1.44,3.13 2.89,2.89 1.68,2.66 1.68,3.37 2.41,2.89 0.24,3.84 1.68,2.66 0.96,1.44 0.73,-0.24 1.2,1.68 0.96,1.93 -0.96,0.73 -2.89,-2.41 -3.13,-1.93 -1.44,-1.44 0.73,-2.66 -0.73,-2.41 -1.68,-0.24 -0.73,-1.2 -1.44,-0.24 -4.09,-3.84 1.93,-0.24 0.24,-1.68 -1.93,-3.37 -1.68,-1.93 h -1.68 l -0.24,-2.89 -1.44,-2.89 -1.65,-2.17 -0.39,-2.05 6.13,-0.12 12.03,4.2 h 9.99 l -0.24,-0.96 h 4.81 l 1.93,1.08 1.08,1.08 2.56,1.99 1.17,3.43 4.25,2.26 2.5,-2.86 2.66,0.52 1.35,0.99 3.34,5.33 1.2,1.11 0.85,3.01 6.16,2.56 -0.73,2.63 -0.9,0.82 -0.28,2.71 0.18,2.35 0.09,2.08 -0.18,1.99 -0.09,1.9 1.72,1.62 2.17,4.15 1.81,2.35 3.61,1.9 1.81,0.73 4.97,-0.18 2.98,-0.36 0.99,0.18 0.09,-1.17 -0.36,-0.73 1.72,-0.18 1.17,-1.35 0.18,-2.63 0.18,-2.71 3.52,-0.09 2.35,-0.36 1.17,-0.91 2.45,0.09 1.81,0.99 -0.28,1.62 -2.17,2.17 0.36,1.81 -0.28,2.7 -0.28,1.25 -1.35,-0.64 -0.36,0.82 -0.9,0.28 -0.82,1.17 -0.82,0.18 -5.6,0.09 v 3.34 l 1.35,1.44 -0.09,0.64 -3.88,0.82 -0.54,0.99 -0.36,1.08 0.18,1.62 0.73,1.17 -0.64,0.46 -1.81,-1.35 -1.81,-2.45 -1.62,-1.44 -2.26,-0.18 -1.62,-0.73 h -1.99 l -2.26,1.08 h -2.53 l -4.06,-0.91 -1.54,-1.44 -1.81,-0.91 -2.26,-0.18 -2.89,-1.72 -1.72,-1.08 -2.26,-1.17 h -2.8 l -1.69,-1.08 -0.73,-2.26 -2.26,-0.73 -2.08,-1.25 -0.64,-1.99 0.54,-1.25 0.28,-1.72 -0.46,-0.91 -0.28,-1.81 -1.35,-2.17 -1.9,-1.72 -1.54,-2.26 -1.72,-1.62 -1.62,-1.54 -1.44,-1.62 -2.08,-0.99 -1.17,-1.54 0.73,-1.35 -0.18,-0.82 -1.17,-0.28 -1.35,-1.44 -2.08,-1.44 0.73,-1.62 -1.44,-0.18 -1.81,-1.9 -0.82,-1.17 -1.81,0.73 0.18,-2.45 v -1.72 l -1.54,-2.63 -0.64,-1.62 -0.73,-1.25 -1.17,-0.82 -1.81,0.36 z"
         style="fill:#111d2e;fill-opacity:0.4;stroke:#e6d9c1;stroke-width:0.775673;stroke-miterlimit:4;stroke-dasharray:none;stroke-opacity:1" />
      <path
         id="gt"
         fill="#dddddd"
         stroke="#ffffff"
         stroke-width="0.254105"
         stroke-miterlimit="10"
         d="m 314.1,480.4 0.78,0.06 0.73,0.6 0.6,-0.36 0.42,0.49 -0.18,0.85 -2.47,1.44 -0.31,1.68 -1.08,1.02 -1.44,1.25 -1.37,-0.85 -1.57,-0.06 h -1.68 l -1.2,-0.99 0.64,-0.46 -0.73,-1.17 -0.03,-1.54 0.76,-2.17 3.88,-0.82 0.09,-0.64 -1.35,-1.44 0.18,-3.19 5.42,-0.24 z"
         style="fill:#111d2e;fill-opacity:0.4;stroke:#e6d9c1;stroke-width:0.775673;stroke-miterlimit:4;stroke-dasharray:none;stroke-opacity:1" />
      <path
         id="bz"
         fill="#dddddd"
         stroke="#ffffff"
         stroke-width="0.254105"
         stroke-miterlimit="10"
         d="m 316.27,478.59 -0.96,0.73 -0.54,0.91 -0.67,0.18 0.06,-6.49 0.82,-0.18 0.82,-1.17 0.9,-0.28 0.36,-0.82 1.35,0.64 -1.11,0.54 -0.06,1.86 -0.24,2.23 z"
         style="fill:#111d2e;fill-opacity:0.4;stroke:#e6d9c1;stroke-width:0.775673;stroke-miterlimit:4;stroke-dasharray:none;stroke-opacity:1" />
      <path
         id="hn"
         fill="#dddddd"
         stroke="#ffffff"
         stroke-width="0.254105"
         stroke-miterlimit="10"
         d="m 332.22,483.28 -2.23,1.08 -1.2,0.18 -1.5,-0.6 -0.78,0.91 -0.96,0.6 -0.9,0.85 -0.42,0.31 -0.78,-0.24 -0.85,1.02 -1.57,0.78 -0.18,1.14 -1.5,0.6 0.18,-0.85 -0.78,-0.78 -0.49,-0.96 -1.14,-0.18 -1.02,-0.18 -1.5,-0.85 -0.9,-0.96 0.18,-1.5 2.59,-1.62 0.06,-0.67 1.44,-0.36 0.73,-0.73 1.44,0.78 1.5,-0.67 1.99,-0.31 1.25,-0.42 0.73,0.67 2.71,0.12 1.68,1.2 -0.9,0.54 1.14,0.54 0.36,-0.78 1.37,0.18 z"
         style="fill:#111d2e;fill-opacity:0.4;stroke:#e6d9c1;stroke-width:0.775673;stroke-miterlimit:4;stroke-dasharray:none;stroke-opacity:1" />
      <path
         id="sv"
         fill="#dddddd"
         stroke="#ffffff"
         stroke-width="0.254105"
         stroke-miterlimit="10"
         d="m 312.6,487.62 1.62,0.49 0.54,1.02 1.68,0.06 1.08,-0.24 1.02,-0.67 -0.31,-0.96 -2.17,-0.36 -1.37,-0.67 -1.02,-1.14 -2.23,1.99 z"
         style="fill:#111d2e;fill-opacity:0.4;stroke:#e6d9c1;stroke-width:0.775673;stroke-miterlimit:4;stroke-dasharray:none;stroke-opacity:1" />
      <path
         id="ni"
         fill="#dddddd"
         stroke="#ffffff"
         stroke-width="0.254105"
         stroke-miterlimit="10"
         d="m 324.45,495.38 1.25,-0.24 1.37,0.36 h 0.78 l 1.57,1.02 1.44,0.06 -0.31,-0.96 0.06,-2.17 0.73,-1.5 -0.36,-1.5 0.6,0.24 v -3.12 l 0.67,-1.25 0.31,-1.68 -0.36,-1.31 -2.23,1.08 -1.2,0.18 -1.31,-0.67 -0.6,1.02 -1.31,0.54 -1.31,1.14 -0.6,-0.24 -1.02,1.02 -1.57,0.96 -0.12,1.19 -1.57,0.36 -0.18,0.49 1.37,1.31 1.08,1.2 0.9,0.96 0.6,0.96 z"
         style="fill:#111d2e;fill-opacity:0.4;stroke:#e6d9c1;stroke-width:0.775673;stroke-miterlimit:4;stroke-dasharray:none;stroke-opacity:1" />
      <path
         id="cr"
         fill="#dddddd"
         stroke="#ffffff"
         stroke-width="0.254105"
         stroke-miterlimit="10"
         d="m 334.62,500.61 -0.67,0.49 0.12,1.62 -0.67,1.5 -0.85,-1.08 -0.85,0.06 0.36,0.78 -1.25,-0.31 -0.06,-1.31 -1.25,-0.91 -1.08,-0.67 -1.14,-1.25 -0.67,-0.06 -0.06,0.78 -1.5,-0.91 -1.02,-1.19 0.18,-1.08 0.06,-0.85 -0.12,-0.91 1.57,-0.18 1.31,0.54 0.85,-0.18 1.57,0.85 1.44,0.24 1.02,2.17 1.02,0.85 z"
         style="fill:#111d2e;fill-opacity:0.4;stroke:#e6d9c1;stroke-width:0.775673;stroke-miterlimit:4;stroke-dasharray:none;stroke-opacity:1" />
      <path
         id="pa"
         fill="#dddddd"
         stroke="#ffffff"
         stroke-width="0.254105"
         stroke-miterlimit="10"
         d="m 349.06,507.71 1.37,-0.6 0.49,-1.5 -0.12,-1.5 -0.67,-0.91 -1.14,-1.14 -0.49,-0.73 -1.14,-0.18 -1.2,-0.24 h -0.78 l -0.6,-0.36 h -1.62 l -0.31,0.73 -1.14,0.49 -1.02,0.24 -1.2,0.6 -0.73,0.24 -0.96,-0.73 -1.02,-0.31 -0.31,0.67 -0.9,-0.31 -0.06,-0.78 -0.73,-0.67 -0.85,0.36 0.12,1.62 -0.67,1.5 0.96,0.49 1.81,0.06 1.08,0.36 0.42,0.31 -0.42,0.78 0.12,1.25 0.54,-1.08 1.5,0.12 0.31,1.19 1.44,-0.12 0.96,-0.85 0.06,-1.02 0.18,-1.02 0.78,-0.85 0.12,-0.85 1.25,-0.42 0.78,-0.67 0.36,0.6 0.6,0.6 0.85,0.67 0.24,0.42 0.9,-0.12 0.12,0.42 -0.78,0.78 v 1.02 l 0.96,0.96 z"
         style="fill:#111d2e;fill-opacity:0.4;stroke:#e6d9c1;stroke-width:0.775673;stroke-miterlimit:4;stroke-dasharray:none;stroke-opacity:1" />
      <path
         id="co"
         fill="#dddddd"
         stroke="#ffffff"
         stroke-width="0.254105"
         stroke-miterlimit="10"
         d="m 350.68,509.28 0.12,4.09 -0.49,1.44 0.73,3.13 0.96,0.73 -0.96,1.68 -1.57,1.2 -3.01,0.96 v 2.89 l 2.29,2.17 1.93,1.44 1.44,1.31 3.84,-0.49 1.81,0.36 0.24,0.73 2.17,1.08 1.31,2.29 1.81,1.2 1.08,1.93 0.36,0.96 h 3.72 l 1.81,-0.24 1.68,0.36 1.81,1.44 -1.2,2.17 0.96,1.68 0.6,0.73 0.6,-1.68 1.81,-8.07 -1.31,-2.05 -0.85,-1.93 0.12,-1.31 2.29,-0.49 0.12,-1.08 -1.93,-0.96 0.24,-1.2 3.84,-0.36 0.73,-0.73 1.08,0.73 1.08,-0.85 1.68,3.01 0.73,-0.6 -2.41,-4.34 -0.96,-0.85 1.08,-1.44 -0.96,-3.37 1.2,-5.9 -3.84,-0.24 -2.76,0.24 -1.93,-2.76 -6.61,-0.36 -0.96,-3.01 -0.96,-1.93 -1.31,-0.24 1.2,-2.17 -0.13,-3.38 2.89,-1.93 0.12,-1.68 1.81,-0.36 0.49,-1.08 -1.31,-0.6 -1.81,0.12 -0.6,1.57 -0.49,1.31 -3.13,0.73 -1.57,0.12 -1.08,0.24 -2.66,0.24 -0.96,1.93 0.96,1.08 -1.2,0.96 v 1.08 l -1.81,0.24 -1.08,2.17 -0.73,0.36 v 1.31 l -0.85,0.49 -0.49,-1.57 h -0.36 l -0.36,1.2 -0.24,1.44 -1.5,1.08 z"
         style="fill:#111d2e;fill-opacity:0.4;stroke:#e6d9c1;stroke-width:0.775673;stroke-miterlimit:4;stroke-dasharray:none;stroke-opacity:1" />
      <path
         id="pe"
         fill="#dddddd"
         stroke="#ffffff"
         stroke-width="0.254105"
         stroke-miterlimit="10"
         d="m 371.98,544.65 -2.53,0.85 -2.76,0.49 -1.81,1.57 -0.73,2.89 -0.73,2.05 -1.31,1.2 -0.36,1.81 1.44,2.76 1.57,1.68 -0.49,1.31 1.93,0.6 1.2,1.31 3.25,-0.6 0.73,-1.93 0.96,3.84 h 3.61 l 2.05,3.25 -0.36,3.84 v 3.01 l -0.85,2.66 -0.36,3.01 0.6,1.93 v 1.68 l -0.96,2.29 -1.2,1.08 -0.12,1.31 -1.81,1.31 -0.24,-1.2 -3.84,-4.2 -2.66,-1.57 -3.37,-1.68 -3.49,-1.81 -5.29,-5.29 0.85,-0.6 -1.08,-1.57 -2.41,-4.81 -2.66,-3.97 -1.44,-2.76 -0.49,-2.66 -1.2,-2.89 -2.89,-3.13 -3.25,-1.31 -0.6,-1.93 0.73,-0.6 -1.44,-2.29 v -2.41 l 2.29,-0.96 1.68,-0.96 0.36,1.57 -0.85,1.44 0.73,1.2 h 1.08 l 0.96,0.6 2.29,0.49 1.57,-1.57 0.12,-2.89 1.93,-1.31 2.89,-1.44 1.68,-2.05 2.05,-1.31 0.24,-1.68 0.85,-0.49 -0.85,-1.57 1.44,-0.85 1.68,1.08 1.2,1.81 1.93,1.44 1.31,2.66 h 4.09 l 1.44,-0.24 1.68,0.36 1.81,1.44 -1.2,2.17 1.57,2.41 z"
         style="fill:#111d2e;fill-opacity:0.4;stroke:#e6d9c1;stroke-width:0.775673;stroke-miterlimit:4;stroke-dasharray:none;stroke-opacity:1" />
      <path
         id="path4243"
         fill="#dddddd"
         stroke="#ffffff"
         stroke-width="0.254105"
         stroke-miterlimit="10"
         d="m 346.6,526 -1.68,1.19 -1.81,1.08 -1.08,0.24 v 3.13 l -1.44,2.66 -0.12,2.89 0.96,1.81 1.57,-1.08 0.6,1.31 -1.44,2.05 0.36,1.57 -0.85,1.44 0.49,0.96 1.2,-0.12 1.57,1.08 1.81,0.36 1.57,-1.57 0.12,-2.89 1.93,-1.57 2.53,-1.19 2.05,-2.05 2.41,-1.57 -0.12,-1.68 0.85,-0.24 -0.85,-1.57 0.96,-0.85 -0.36,-1.2 -1.81,-0.36 -3.84,0.49 -1.44,-1.31 -1.81,-1.2 z"
         style="fill:#111d2e;fill-opacity:0.4;stroke:#e6d9c1;stroke-width:0.775673;stroke-miterlimit:4;stroke-dasharray:none;stroke-opacity:1" />
      <path
         id="path4245"
         fill="#dddddd"
         stroke="#ffffff"
         stroke-width="0.254105"
         stroke-miterlimit="10"
         d="m 306.89,530.22 -0.67,0.78 0.31,0.96 1.02,0.06 -0.96,0.78 v 1.08 l 2.29,-0.24 0.31,-1.37 -0.24,-1.31 z"
         style="fill:#111d2e;fill-opacity:0.4;stroke:#e6d9c1;stroke-width:0.775673;stroke-miterlimit:4;stroke-dasharray:none;stroke-opacity:1" />
      <path
         id="ve"
         fill="#dddddd"
         stroke="#ffffff"
         stroke-width="0.254105"
         stroke-miterlimit="10"
         d="m 370.42,495.56 2.05,-0.24 2.53,-0.6 -1.81,-1.31 0.6,-1.68 1.93,1.08 V 494 l 2.29,0.6 0.96,1.2 0.96,1.68 4.46,0.12 1.2,-0.24 2.89,1.57 3.73,-0.24 -0.12,-1.2 h 3.13 l 3.49,-0.24 -1.44,1.08 0.6,1.93 0.73,-0.6 2.66,1.31 1.57,1.68 1.44,0.24 1.31,1.2 0.24,1.19 -1.81,1.31 -0.24,1.57 0.96,0.24 -0.49,0.85 -3.25,0.96 0.24,0.85 0.49,2.05 1.31,1.57 0.12,1.08 -2.17,1.31 -3.25,1.08 -2.17,0.85 -2.17,-0.6 -1.68,-0.24 0.49,0.85 0.24,1.57 -0.12,2.05 2.53,0.73 -0.6,1.44 -1.31,0.36 -0.85,1.57 -2.66,0.24 -1.81,1.44 h -2.41 l -0.85,-1.44 -2.41,-4.34 -0.96,-0.85 1.08,-1.44 -0.96,-3.37 0.85,-6.02 -3.49,-0.12 -2.76,0.24 -1.93,-2.76 -6.61,-0.36 -1.31,-3.37 -0.6,-1.57 -1.31,-0.24 1.2,-2.17 -0.12,-3.37 2.89,-1.93 z"
         style="fill:#111d2e;fill-opacity:0.4;stroke:#e6d9c1;stroke-width:0.775673;stroke-miterlimit:4;stroke-dasharray:none;stroke-opacity:1" />
      <path
         id="gy"
         fill="#dddddd"
         stroke="#ffffff"
         stroke-width="0.254105"
         stroke-miterlimit="10"
         d="m 405.19,514.93 0.49,2.53 1.57,0.73 -1.08,1.08 -1.2,1.81 1.2,1.93 0.85,0.6 v 1.93 l 3.01,2.17 2.89,-2.76 1.93,-0.49 1.57,0.6 -1.44,-2.17 -0.73,-2.76 -1.31,-0.6 -1.08,-1.81 0.73,-2.41 2.17,-1.68 0.12,-1.81 -1.93,-1.93 -2.17,-1.31 -0.96,0.49 -0.24,-1.81 -0.73,-1.31 -1.93,-0.96 -1.08,0.36 -1.81,1.31 -0.24,1.57 0.85,0.6 -0.36,0.49 -3.25,0.96 0.73,3.13 1.31,1.31 z"
         style="fill:#111d2e;fill-opacity:0.4;stroke:#e6d9c1;stroke-width:0.775673;stroke-miterlimit:4;stroke-dasharray:none;stroke-opacity:1" />
      <path
         id="sr"
         fill="#dddddd"
         stroke="#ffffff"
         stroke-width="0.254105"
         stroke-miterlimit="10"
         d="m 418.54,524.92 v -1.31 l 2.76,-0.96 2.41,-1.31 0.36,-2.05 -1.57,-2.05 0.36,-1.93 0.96,-2.29 -2.05,-0.96 -1.93,-0.12 -1.81,0.36 -3.25,-0.49 -0.12,1.81 -2.17,1.93 -0.73,2.17 1.08,1.81 1.44,0.96 0.6,2.41 1.44,2.17 z"
         style="fill:#111d2e;fill-opacity:0.4;stroke:#e6d9c1;stroke-width:0.775673;stroke-miterlimit:4;stroke-dasharray:none;stroke-opacity:1" />
      <path
         id="gf"
         fill="#dddddd"
         stroke="#ffffff"
         stroke-width="0.254105"
         stroke-miterlimit="10"
         d="m 423.12,524.8 2.05,-0.12 1.81,0.12 1.08,-2.53 1.31,-2.53 2.53,-2.17 -0.6,-1.68 -1.2,-0.12 -2.17,-1.57 -2.66,-1.08 -1.44,-0.12 -0.96,2.29 -0.36,1.93 1.68,2.29 -0.49,1.81 -2.41,1.31 z"
         style="fill:#111d2e;fill-opacity:0.4;stroke:#e6d9c1;stroke-width:0.775673;stroke-miterlimit:4;stroke-dasharray:none;stroke-opacity:1" />
      <path
         id="br"
         fill="#dddddd"
         stroke="#ffffff"
         stroke-width="0.254105"
         stroke-miterlimit="10"
         d="m 376.43,564.15 3.07,1.62 0.54,-1.81 4.52,-1.08 h 2.71 l 1.62,2.53 3.43,3.78 3.97,0.54 4.52,3.43 2.89,0.73 0.54,4.87 -0.54,0.91 2.89,3.07 3.61,-0.36 0.9,3.43 1.81,1.62 -0.18,6.49 -1.25,1.08 0.54,6.49 6.67,0.18 1.44,5.24 3.43,-0.36 -1.08,5.78 2.35,1.62 0.18,4.69 -4.87,3.61 -2.35,2.53 -3.97,3.61 2.17,1.62 2.35,2.53 1.44,0.36 6.31,4.34 0.36,1.99 3.07,-3.43 4.69,-4.87 -1.81,3.97 1.62,-1.08 2.35,-3.97 0.73,-3.25 2.53,-2.71 2.35,-3.43 -0.54,-5.05 0.36,-3.61 4.52,-2.53 4.52,-2.53 2.71,-2.71 6.49,-0.36 2.71,-1.44 1.99,-1.99 0.9,-3.43 2.71,-3.25 0.9,-0.91 -0.18,-4.69 1.62,-0.73 1.08,-6.31 -0.18,-6.67 0.36,-1.81 2.53,-1.99 2.71,-4.87 2.89,-3.25 2.89,-3.78 1.25,-3.61 -0.54,-3.78 -1.62,-4.34 h -3.07 l -2.17,-1.81 -2.89,-1.08 -1.99,-2.17 -4.34,-2.89 -2.89,0.54 -2.17,-0.18 -5.96,-1.81 -1.99,-0.18 -1.25,-1.62 -5.42,-1.08 -3.07,-2.17 -2.71,0.18 -1.08,1.81 -0.36,-2.53 -1.62,-0.54 -2.71,-0.18 -2.17,1.25 -1.44,1.81 -0.18,-2.35 2.17,-2.53 2.35,-2.17 -0.73,-1.44 -0.9,-1.44 -1.08,-1.44 -0.36,-0.73 -0.18,-2.7 -0.54,-1.44 -1.37,-0.36 -2.53,2.17 -2.41,5.05 -2.71,-0.18 -0.73,0.36 -2.23,-2.35 -2.76,0.96 v 1.31 l -2.17,0.12 -1.14,-0.6 -2.35,0.49 -2.89,2.76 -3.01,-2.17 v -1.93 l -2.05,-2.53 2.29,-2.89 -1.57,-0.73 -0.9,-2.41 -1.75,-0.36 0.12,1.08 -2.89,1.99 -4.69,1.25 -3.84,-0.85 0.96,1.19 -0.36,3.25 2.53,0.73 -0.6,1.44 -1.31,0.36 -0.85,1.57 -2.66,0.24 -1.81,1.44 h -2.41 l -0.85,-1.44 -0.73,0.6 -1.68,-3.01 -1.08,0.85 -1.08,-0.73 -0.73,0.73 -3.84,0.36 -0.24,1.2 1.93,0.96 -0.12,1.08 -2.29,0.49 -0.06,1.81 2.11,3.49 -2.29,9.32 -2.29,0.54 -3.31,0.91 -1.99,0.42 -1.81,1.57 -1.62,5.42 -1.25,1.25 -0.24,1.25 1.44,2.76 1.57,1.68 -0.49,1.31 1.93,0.6 1.2,1.31 3.25,-0.6 0.73,-1.93 0.96,3.84 h 3.01 z"
         style="fill:#111d2e;fill-opacity:0.4;stroke:#e6d9c1;stroke-width:0.775673;stroke-miterlimit:4;stroke-dasharray:none;stroke-opacity:1" />
      <path
         id="bo"
         fill="#dddddd"
         stroke="#ffffff"
         stroke-width="0.254105"
         stroke-miterlimit="10"
         d="m 376.25,587.79 1.44,3.61 1.81,0.54 -0.9,1.81 -0.18,2.7 0.36,1.25 1.08,0.36 1.25,5.6 2.35,-0.36 3.07,-3.07 2.35,0.73 1.81,0.54 0.9,1.62 1.99,-2.89 2.53,0.36 0.73,1.25 1.44,-3.25 2.17,-5.78 3.43,-0.18 3.25,-0.54 3.78,1.62 0.54,1.25 1.25,-1.08 0.18,-6.49 -1.81,-1.62 -0.9,-3.43 -3.61,0.36 -2.89,-3.07 0.54,-0.91 -0.54,-4.87 -2.89,-0.73 -4.52,-3.43 -3.97,-0.54 -5.05,-6.32 -7.22,1.08 -1.08,1.81 -3.01,-1.25 2.05,3.25 -0.49,4.52 0.12,2.35 -0.85,2.66 -0.36,3.01 0.9,2.47 -0.73,2.7 -1.08,1.08 z"
         style="fill:#111d2e;fill-opacity:0.4;stroke:#e6d9c1;stroke-width:0.775673;stroke-miterlimit:4;stroke-dasharray:none;stroke-opacity:1" />
      <path
         id="py"
         fill="#dddddd"
         stroke="#ffffff"
         stroke-width="0.254105"
         stroke-miterlimit="10"
         d="m 397.92,602.77 2.35,2.17 3.78,3.61 2.89,0.18 2.17,1.25 2.89,1.81 0.73,1.25 -1.99,2.35 -0.54,2.71 7.41,1.25 1.99,-0.73 0.36,-1.44 2.35,-1.44 -0.18,-2.17 1.62,-0.36 -1.25,-0.91 1.08,-5.78 -3.43,0.36 -1.44,-5.24 -6.67,-0.18 -0.54,-6.49 -0.54,-1.25 -3.78,-1.62 -2.71,0.54 -3.97,0.18 -3.61,9.02 z"
         style="fill:#111d2e;fill-opacity:0.4;stroke:#e6d9c1;stroke-width:0.775673;stroke-miterlimit:4;stroke-dasharray:none;stroke-opacity:1" />
      <path
         id="path4265"
         fill="#dddddd"
         stroke="#ffffff"
         stroke-width="0.254105"
         stroke-miterlimit="10"
         d="m 383.48,603.31 -0.36,2.89 -0.73,1.44 -3.07,1.81 -0.36,2.89 -0.9,1.44 1.81,4.15 -0.36,1.44 -2.17,-0.18 -1.99,3.43 -0.73,3.61 -0.36,2.53 -1.08,2.7 -1.25,3.25 1.25,3.43 1.99,2.89 -0.36,2.53 -1.44,2.53 -0.54,5.05 -1.81,0.73 -1.25,1.81 0.54,4.87 1.25,2.7 -1.62,1.99 -1.25,4.34 -0.18,4.52 v 4.69 l -0.73,1.81 0.36,1.81 -0.18,1.99 0.54,4.34 1.44,1.81 -0.9,2.7 0.54,3.61 -1.08,3.61 -1.99,1.08 -0.36,3.61 -1.08,2.7 -1.25,1.99 0.73,2.89 0.18,2.53 v 1.99 l 2.71,-0.54 v 2.17 2.53 l 1.44,1.99 2.89,-0.18 3.07,0.73 2.35,0.54 1.99,0.36 -1.62,-2.89 -1.25,-1.25 0.54,-2.17 -0.54,-2.35 2.17,-1.81 0.54,-0.36 h 1.81 l 0.18,-3.07 0.73,-1.99 3.07,-3.07 2.17,-2.89 0.36,-3.25 -1.62,-0.36 -3.07,-1.99 -0.18,-3.43 1.99,-2.35 2.17,-2.17 1.08,0.73 0.73,-2.17 0.36,-2.17 0.9,-2.89 2.35,-1.81 -1.44,-1.44 0.9,-0.18 1.99,0.91 1.25,-1.99 -1.44,-1.25 -2.53,1.08 -0.73,-0.91 -1.25,-1.44 0.54,-3.61 1.44,-0.73 2.89,1.25 2.71,0.18 1.99,-2.35 v -2.53 l 0.54,-3.97 5.05,0.36 3.97,-1.62 2.53,-1.08 2.53,-0.73 0.73,-2.35 2.89,-4.15 -1.62,-1.08 -0.73,-2.71 -0.73,-1.99 -2.71,-0.91 -0.73,-1.99 0.9,-0.91 -0.73,-1.62 0.54,-1.81 -0.36,-3.07 1.44,-2.35 0.54,-3.43 1.44,-2.35 6.31,-6.13 4.87,-3.61 -0.18,-4.69 -1.08,-0.73 -1.99,0.91 1.08,1.44 -2.89,1.62 -0.36,1.44 -1.99,0.73 -7.41,-1.25 0.54,-2.71 1.99,-2.35 -0.73,-1.25 -5.05,-3.07 -2.89,-0.18 -7.22,-6.67 -0.73,-1.25 -2.53,-0.36 -1.99,2.89 -0.9,-1.62 -4.15,-1.25 z"
         style="fill:#111d2e;fill-opacity:0.4;stroke:#e6d9c1;stroke-width:0.775673;stroke-miterlimit:4;stroke-dasharray:none;stroke-opacity:1" />
      <path
         id="path4267"
         fill="#dddddd"
         stroke="#ffffff"
         stroke-width="0.254105"
         stroke-miterlimit="10"
         d="m 378.34,724.88 0.36,11.28 h 1.35 l -0.18,0.64 0.28,1.44 h 2.17 l 0.73,-0.99 -1.44,-0.73 1.81,0.54 1.81,0.64 2.17,-0.91 1.54,-0.64 -0.28,-1.17 -2.26,-0.28 -2.17,-1.08 -1.99,-0.91 -0.82,-1.44 -0.73,-1.54 -0.46,-0.99 -0.73,-0.99 -0.09,-0.82 0.46,0.28 v -1.35 z"
         style="fill:#111d2e;fill-opacity:0.4;stroke:#e6d9c1;stroke-width:0.775673;stroke-miterlimit:4;stroke-dasharray:none;stroke-opacity:1" />
      <path
         id="path4269"
         fill="#dddddd"
         stroke="#ffffff"
         stroke-width="0.392447"
         stroke-miterlimit="10"
         d="m 411.56485,716.44145 v 2.66396 l -1.66326,1.25454 -1.52466,1.93601 -0.1386,2.07541 2.21768,0.13939 0.98563,-2.23029 2.21768,0.1394 -0.1386,-1.93602 2.7875,-0.27878 1.24744,-2.0909 -2.64889,-2.0909 -1.40145,0.55758 z"
         style="fill:#111d2e;fill-opacity:0.4;stroke:#e6d9c1;stroke-width:0.775673;stroke-miterlimit:4;stroke-dasharray:none;stroke-opacity:1" />
      <path
         id="path4271"
         fill="#dddddd"
         stroke="#ffffff"
         stroke-width="0.392447"
         stroke-miterlimit="10"
         d="m 408.77735,717.12293 -1.12424,-1.13063 h -2.37169 l -0.1386,2.23029 -2.07908,0.83635 0.83163,2.23029 -1.92507,-0.41818 -0.98563,-1.40941 0.1386,2.36968 2.21768,1.81211 2.37169,-0.83636 1.12424,-2.50908 1.26284,-0.69696 1.66326,-1.53333 z"
         style="fill:#111d2e;fill-opacity:0.4;stroke:#e6d9c1;stroke-width:0.775673;stroke-miterlimit:4;stroke-dasharray:none;stroke-opacity:1" />
      <path
         id="path4275"
         fill="#dddddd"
         stroke="#ffffff"
         stroke-width="0.254105"
         stroke-miterlimit="10"
         d="m 327.7,460.18 1.44,-0.24 v -1.68 l 2.76,-1.08 2.53,-0.36 1.81,-1.08 1.81,0.12 2.53,0.49 1.57,1.19 1.31,-0.49 1.31,2.05 2.76,-0.24 1.68,1.08 2.29,2.05 2.05,0.6 3.25,0.85 -0.96,1.2 h 3.01 l 1.57,0.36 0.12,0.96 -1.81,1.44 -3.49,0.12 -5.42,-0.6 1.93,-1.44 -1.57,-0.85 -1.93,-0.24 -1.2,-2.17 -1.44,-0.96 h -2.29 l -2.89,-1.31 h -1.68 l -2.76,-1.2 0.96,-0.6 -0.6,-0.36 -2.66,0.36 -1.44,1.31 -1.81,0.36 -1.68,1.31 z"
         style="fill:#111d2e;fill-opacity:0.4;stroke:#e6d9c1;stroke-width:0.775673;stroke-miterlimit:4;stroke-dasharray:none;stroke-opacity:1" />
      <path
         id="path4277"
         fill="#dddddd"
         stroke="#ffffff"
         stroke-width="0.254105"
         stroke-miterlimit="10"
         d="m 333.11,460.42 -0.36,1.44 1.31,-0.12 0.49,-1.08 z"
         style="fill:#111d2e;fill-opacity:0.4;stroke:#e6d9c1;stroke-width:0.775673;stroke-miterlimit:4;stroke-dasharray:none;stroke-opacity:1" />
      <path
         id="jm"
         fill="#dddddd"
         stroke="#ffffff"
         stroke-width="0.254105"
         stroke-miterlimit="10"
         d="m 354.54,473.17 -1.68,-0.85 -2.76,-0.36 -2.29,0.36 1.93,1.2 -0.12,1.2 2.66,-0.6 z"
         style="fill:#111d2e;fill-opacity:0.4;stroke:#e6d9c1;stroke-width:0.775673;stroke-miterlimit:4;stroke-dasharray:none;stroke-opacity:1" />
      <path
         id="ht"
         fill="#dddddd"
         stroke="#ffffff"
         stroke-width="0.254105"
         stroke-miterlimit="10"
         d="m 368.12,467.52 0.24,1.2 -0.24,1.08 0.12,0.96 0.6,0.24 -0.49,0.49 -0.24,1.68 -1.2,-0.36 -1.81,0.24 -1.31,-0.49 -1.81,-0.12 v 0.6 l -0.85,-0.85 -1.2,-0.24 0.6,-0.6 2.53,0.12 2.05,0.24 1.2,-0.36 -0.49,-0.73 -0.36,-1.68 -0.73,-0.6 -1.81,-0.49 0.49,-0.6 h 1.68 l 1.81,0.73 z"
         style="fill:#111d2e;fill-opacity:0.4;stroke:#e6d9c1;stroke-width:0.775673;stroke-miterlimit:4;stroke-dasharray:none;stroke-opacity:1" />
      <path
         id="do"
         fill="#dddddd"
         stroke="#ffffff"
         stroke-width="0.254105"
         stroke-miterlimit="10"
         d="m 368.49,474.02 1.2,0.49 0.96,-1.68 1.68,-0.73 -0.12,0.85 2.53,-0.12 1.44,-0.96 1.31,0.24 0.85,0.73 1.2,-1.57 -0.96,-1.68 h -3.01 l -0.85,-1.44 -1.57,-0.85 h -2.41 l -1.57,0.24 -1.2,-0.36 0.36,1.57 -0.36,1.31 0.36,1.2 -0.24,1.93 z"
         style="fill:#111d2e;fill-opacity:0.4;stroke:#e6d9c1;stroke-width:0.775673;stroke-miterlimit:4;stroke-dasharray:none;stroke-opacity:1" />
      <path
         id="path4295"
         fill="#dddddd"
         stroke="#ffffff"
         stroke-width="0.254105"
         stroke-miterlimit="10"
         d="m 150.24,222.3 -4.69,-2.53 -4.69,-1.81 -2.89,2.53 -5.05,-2.89 -8.3,-1.44 h -5.05 l -3.61,-1.44 -0.36,-2.53 h -4.34 l -3.61,-1.81 -1.44,-0.36 -2.17,-2.17 -3.25,-0.36 -1.79,2.55 -5.05,1.81 -3.63,1.81 -2.17,3.97 -3.61,0.73 -2.17,4.69 -0.73,4.34 -3.61,2.53 -5.05,0.36 -1.81,3.25 3.61,3.97 3.61,2.53 2.53,4.34 2.89,1.08 2.53,0.73 0.73,2.17 2.89,-0.36 -0.36,3.97 -2.89,-1.44 v 1.44 h -4.69 -2.2 l 0.36,-2.89 -3.25,0.36 -2.53,1.81 -1.81,1.81 -2.89,2.17 -2.53,1.44 4.34,4.34 1.08,2.89 2.53,1.08 5.78,-0.73 2.53,1.44 5.42,-1.81 -0.73,2.17 1.44,1.81 -1.08,3.25 -3.25,1.08 -3.97,2.89 -2.53,-0.36 -2.53,2.89 -1.08,2.17 -2.89,3.97 v 5.05 h 2.89 l 1.81,1.81 -1.08,1.08 -5.05,0.73 -1.81,1.81 4.2,2.17 1.57,-2.05 v -2.05 l 1.08,0.12 0.73,1.08 1.31,1.08 2.29,2.05 3.25,-0.24 0.96,-1.81 1.81,1.2 0.24,2.41 -1.08,2.05 1.44,2.41 -0.24,1.31 3.84,-2.41 1.31,1.08 2.66,0.12 0.85,2.66 1.57,-3.49 0.96,1.44 3.73,-1.68 -1.93,2.89 -0.12,2.17 -0.49,2.89 -1.93,1.81 -1.31,1.93 -0.12,0.85 -1.81,0.36 -2.76,2.05 -0.96,2.17 0.24,0.96 -1.57,0.12 -0.36,-0.49 -3.13,0.24 -0.96,2.05 -1.44,1.44 -1.31,0.36 -0.12,1.57 -1.31,-0.49 -2.29,0.96 -0.85,1.31 -3.25,1.93 -2.53,1.31 -2.05,0.36 0.49,0.73 -1.2,1.57 -1.44,-0.49 -2.66,2.05 -2.29,1.2 -3.37,0.36 -6.49,3.37 -3.13,0.12 -1.56,-1.33 -1.44,1.08 -1.31,0.12 -2.53,0.49 -1.81,0.12 -0.96,0.73 -1.31,-0.12 -2.76,-0.12 0.36,0.96 -3.37,-0.36 -4.46,-0.85 h -2.76 l -3.49,-0.12 -12.63,-4.09 -2.17,-1.08 -0.96,0.49 0.49,1.08 h 2.89 l 11.43,3.97 0.49,0.85 1.57,-0.73 4.2,0.12 7.59,1.2 1.68,0.73 1.44,-0.96 0.49,-0.6 1.44,0.24 -0.49,1.44 1.68,-1.31 -0.12,-0.96 3.73,-0.36 1.57,0.24 1.81,-0.73 0.36,-0.12 0.12,0.85 h 2.89 l 0.36,-0.6 5.05,-1.57 1.44,-1.2 0.6,0.73 1.31,-1.44 1.57,0.24 1.68,-0.73 0.6,0.49 2.17,-1.31 1.68,-1.68 v 0.73 l 2.29,-0.6 2.05,-1.57 0.36,-0.85 v -0.6 l 1.08,-0.6 1.68,-0.12 0.36,-0.96 1.57,-0.96 1.08,-0.24 1.2,-1.08 1.81,0.12 0.6,-0.85 0.6,-0.96 0.96,0.24 0.73,-1.81 0.73,1.31 1.44,-1.31 1.2,-1.68 0.85,1.08 1.2,-0.85 2.53,-0.96 1.31,-0.96 -0.24,1.81 2.05,-2.41 2.76,-1.31 -0.36,-1.08 1.68,-0.96 1.68,-1.31 1.81,-1.57 0.85,-1.68 0.96,-0.96 2.29,-1.81 3.37,-2.66 0.85,-1.81 2.17,-0.85 -0.36,-1.19 -2.41,-0.6 1.31,-3.13 1.57,-1.81 1.2,0.36 0.96,-1.68 -1.08,-1.81 h 1.57 l 2.05,-3.01 1.31,-1.57 2.41,-0.49 2.53,0.49 -1.31,0.49 -1.31,-0.36 -1.81,1.31 -0.96,1.08 0.85,1.44 -0.6,2.29 -1.31,1.68 0.73,0.96 1.93,-0.12 -1.81,1.08 -1.08,0.6 0.6,1.31 2.89,-0.49 1.93,-1.44 1.2,-1.57 2.41,-2.17 0.73,0.96 2.29,-2.29 0.24,-2.29 -1.44,-0.49 0.12,-1.31 2.05,-1.57 0.12,1.44 2.05,-0.6 1.93,-0.36 -0.49,1.31 1.81,1.08 -1.93,1.81 2.41,-0.49 2.17,0.85 1.68,0.85 2.29,-0.12 -0.12,1.19 4.69,-0.24 3.01,0.36 1.31,1.2 3.61,0.12 1.68,-0.85 -0.73,2.41 2.76,0.96 1.68,0.24 0.96,2.17 1.44,3.01 1.93,0.85 1.68,-0.12 0.6,-1.19 -1.31,-1.68 2.29,1.68 0.96,1.08 1.2,0.73 -0.73,-5.29 0.85,1.57 1.68,3.13 1.31,1.08 -1.44,0.85 -1.31,0.6 -2.53,-1.81 -1.44,0.85 1.08,3.73 1.2,0.24 0.85,2.17 1.93,4.2 -0.12,-3.37 -0.73,-2.66 -2.29,-1.81 2.53,0.49 -0.12,-1.44 0.6,-0.49 0.85,2.53 -0.36,2.66 1.93,-1.93 v -1.81 l -0.96,-2.17 1.2,0.12 1.08,1.31 0.36,1.68 0.6,2.41 -1.93,0.6 -1.44,0.85 0.85,2.76 0.73,-1.81 1.31,1.08 1.31,-1.2 -0.12,-1.44 1.44,1.93 0.49,1.31 -1.93,0.6 h -2.41 l 0.12,2.53 1.08,1.08 0.36,1.93 0.96,1.93 2.29,0.36 -0.24,-2.29 -0.49,-2.66 -0.96,-2.05 0.24,-0.49 1.68,1.57 0.49,-1.57 -0.36,3.01 1.44,0.24 0.85,-1.31 -0.73,2.53 1.08,1.93 0.85,-0.73 0.49,1.93 v 0.73 l 2.29,-1.68 0.85,-2.17 -0.12,-1.81 0.6,-1.31 -4.69,-3.13 -2.29,-2.89 -1.31,-3.25 -2.53,-3.97 -0.12,-1.93 -4.93,-5.42 v -1.19 l -1.2,-0.6 -2.29,0.73 -0.36,1.08 -1.2,0.24 -0.12,1.2 -2.17,1.31 -0.36,-1.93 -2.76,-2.29 -1.81,-2.29 -0.36,-1.44 -1.44,-1.19 -1.57,0.96 -3.37,-0.6 0.12,-68.83 z"
         style="fill:#111d2e;fill-opacity:0.4;stroke:#e6d9c1;stroke-width:0.775673;stroke-miterlimit:4;stroke-dasharray:none;stroke-opacity:1" />
      <path
         id="path4297"
         fill="#dddddd"
         stroke="#ffffff"
         stroke-width="0.254105"
         stroke-miterlimit="10"
         d="m 56.02,271.21 -0.18,2.35 h 2.17 l 2.53,0.91 0.9,1.99 1.62,-1.44 1.25,-1.62 -2.71,-1.08 -1.81,-1.62 -1.99,0.36 z"
         style="fill:#111d2e;fill-opacity:0.4;stroke:#e6d9c1;stroke-width:0.775673;stroke-miterlimit:4;stroke-dasharray:none;stroke-opacity:1" />
      <path
         id="path4299"
         fill="#dddddd"
         stroke="#ffffff"
         stroke-width="0.254105"
         stroke-miterlimit="10"
         d="m 114.69,304.43 -2.17,2.7 -2.71,2.71 -1.25,1.08 1.08,2.7 1.81,-1.44 1.08,0.36 1.81,-2.35 2.17,-0.18 -0.73,-3.07 1.44,-0.91 z"
         style="fill:#111d2e;fill-opacity:0.4;stroke:#e6d9c1;stroke-width:0.775673;stroke-miterlimit:4;stroke-dasharray:none;stroke-opacity:1" />
      <path
         id="path4301"
         fill="#dddddd"
         stroke="#ffffff"
         stroke-width="0.254105"
         stroke-miterlimit="10"
         d="m 209.93,355.27 0.24,1.57 1.2,2.53 -0.6,2.66 -1.31,-1.68 -0.85,-1.93 -1.93,-0.36 -3.01,-0.36 h -0.85 l 0.49,1.68 1.68,2.41 v 2.41 l 0.49,2.66 2.17,0.24 0.85,1.19 -2.66,-0.36 -0.85,0.6 0.36,2.53 -0.49,2.76 0.12,3.25 -0.85,2.17 -0.96,3.13 0.73,2.17 0.49,2.76 0.36,2.05 -0.49,2.76 0.36,1.93 0.85,1.93 0.73,2.41 0.6,1.57 2.53,2.05 1.2,-0.12 1.68,0.24 -1.81,0.49 0.49,0.85 -1.57,0.24 1.44,1.57 1.44,1.57 -0.49,1.31 1.93,2.76 2.05,1.68 0.24,2.05 1.68,0.85 2.29,0.73 1.81,1.57 1.57,0.96 1.68,1.31 0.96,0.73 1.08,2.41 6.13,-0.12 12.03,4.2 h 9.99 l -0.24,-0.96 h 4.81 l 1.93,1.08 1.08,1.08 2.76,1.93 0.96,3.49 2.76,1.44 1.68,0.73 2.29,-2.76 3.01,0.36 1.2,0.96 3.25,5.29 1.08,1.31 0.85,3.01 6.36,2.53 -0.24,-2.17 -0.24,-3.01 2.05,-2.41 -0.36,-0.73 2.05,-1.68 1.08,0.6 1.81,-2.05 1.08,-1.44 h 1.57 l 3.49,-0.73 2.53,1.08 h 1.93 l 0.73,-0.85 0.85,0.6 0.12,1.08 2.53,0.85 2.41,-0.36 2.05,0.12 -1.68,-1.31 -0.12,-0.73 1.08,-0.6 -0.12,-0.6 h -1.69 l -1.92,0.24 1.2,-1.08 0.61,-0.73 0.6,0.6 3.49,-0.49 0.49,0.6 h 2.41 l 1.31,-0.36 1.93,-0.12 1.81,0.73 1.08,-0.12 1.08,1.57 2.17,0.12 1.2,-0.96 h 1.2 l 2.41,2.05 1.31,1.44 0.36,1.93 -0.24,2.41 0.85,2.53 2.29,2.89 1.31,2.76 0.49,1.08 2.41,-0.49 0.6,-2.66 v -3.97 l -1.2,-3.25 -0.36,-0.85 -0.24,-2.41 -2.05,-2.41 -0.36,-2.89 0.12,-2.41 0.96,-2.66 1.81,-1.44 -0.12,-1.08 2.17,-0.36 3.13,-3.49 1.44,-1.2 1.57,0.24 1.44,-2.76 2.05,-1.08 1.68,-0.36 1.68,-3.49 -1.68,-0.96 0.96,-0.85 0.24,-0.6 -0.96,-2.41 -0.96,-1.08 1.2,-1.31 -0.96,-1.19 -0.24,-2.41 -0.12,-2.05 0.73,-0.6 0.49,3.01 0.36,1.44 0.85,1.31 -0.24,2.17 1.31,-2.66 0.85,-2.05 0.12,-1.19 -1.2,-1.44 -0.12,-0.6 0.36,-0.36 1.93,1.2 0.6,-1.44 1.31,-1.31 0.24,-1.44 -0.24,-1.68 0.12,-0.85 0.24,-1.19 0.96,1.31 h 0.49 l 1.44,-0.24 1.44,-0.12 1.93,-0.6 -0.36,-0.73 -1.93,0.12 -1.81,0.49 -0.85,0.49 -0.12,-0.85 0.6,-0.73 1.57,-0.36 1.93,-0.36 1.31,-0.36 1.08,-0.73 2.53,0.6 1.2,0.24 0.49,-1.31 -0.85,-0.96 -0.36,-1.44 0.24,-2.41 0.24,-1.93 1.08,-1.44 0.24,-0.6 0.73,0.36 2.29,-2.53 h 0.85 l 1.93,-0.24 0.6,-1.19 h 1.68 l 1.44,-1.2 -0.54,-0.67 -0.67,-1.62 -0.73,-0.54 0.31,-4.02 -0.36,-3.67 -2.17,-0.67 -1.86,0.67 -1.02,-0.12 -4.15,9.69 -1.93,0.12 -0.85,0.73 -10.23,-0.06 -2.53,2.35 -1.57,0.96 -0.73,2.05 -0.36,1.08 -1.81,1.2 h -1.81 l -1.31,-0.6 -1.68,0.24 -2.17,0.73 0.12,1.08 -0.12,1.93 -1.08,0.96 -2.17,0.49 -3.37,1.68 -2.53,0.85 -2.41,0.12 -1.44,-1.08 0.73,-1.31 0.36,-0.36 0.49,-1.31 0.9,-0.54 1.14,-1.99 -1.2,-1.57 -0.24,-2.53 -1.57,-0.49 -2.05,1.44 0.73,-1.68 1.2,-1.68 -0.49,-1.57 -0.36,-1.81 -1.93,-0.73 -1.68,-1.44 -2.05,0.85 0.12,1.57 -1.2,1.44 -0.96,-0.49 -1.81,2.05 v 2.41 l 0.24,2.41 1.08,1.68 -0.12,3.61 -2.29,2.17 -1.68,0.12 -0.85,-2.53 -0.85,-1.81 0.36,-2.41 -0.36,-2.41 0.85,-1.57 0.49,-1.57 0.85,-2.66 -1.93,2.17 1.08,-3.73 1.68,-1.44 2.05,-0.12 1.57,-0.73 h 2.53 2.05 l 1.31,-0.36 1.57,0.24 0.73,1.2 3.01,1.08 0.6,-1.68 -2.05,0.24 -1.31,-0.12 -1.93,-1.44 -1.2,-0.73 -1.37,-1.02 -1.37,0.42 -1.31,-0.96 -3.13,0.12 -1.68,1.08 -1.31,-0.85 -1.57,-0.96 -2.29,-0.12 2.29,-3.25 -2.66,1.2 -2.17,1.68 -2.17,1.19 -1.93,0.24 -0.24,-1.2 -3.97,0.85 3.34,-2.91 2.35,-1.72 2.91,-2.29 -1.2,-0.18 -3.97,0.12 -1.81,-0.36 -1.62,-0.28 -1.62,-1.17 -1.81,0.12 -3.43,-0.85 -0.9,-1.08 -0.49,-1.68 -0.85,-0.78 0.06,0.91 -0.85,1.31 -84.47,0.06 z"
         style="fill:#111d2e;fill-opacity:0.4;stroke:#e6d9c1;stroke-width:0.775673;stroke-miterlimit:4;stroke-dasharray:none;stroke-opacity:1" />
      <path
         id="pr"
         fill="#dddddd"
         stroke="#ffffff"
         stroke-width="0.254105"
         stroke-miterlimit="10"
         d="m 382.69,471.73 1.68,-0.12 2.76,0.73 h 1.68 l -1.57,0.73 -1.68,0.6 h -2.05 l -0.85,-1.2 z"
         style="fill:#111d2e;fill-opacity:0.4;stroke:#e6d9c1;stroke-width:0.775673;stroke-miterlimit:4;stroke-dasharray:none;stroke-opacity:1" />
      <path
         id="bs"
         fill="#dddddd"
         stroke="#ffffff"
         stroke-width="0.254105"
         stroke-miterlimit="10"
         d="m 348.39,449.11 -1.44,2.17 1.31,1.31 0.96,0.6 0.36,1.19 0.85,-1.68 -0.36,-1.68 z"
         style="fill:#111d2e;fill-opacity:0.4;stroke:#e6d9c1;stroke-width:0.775673;stroke-miterlimit:4;stroke-dasharray:none;stroke-opacity:1" />
      <path
         id="cl"
         fill="#dddddd"
         stroke="#ffffff"
         stroke-width="0.254105"
         stroke-miterlimit="10"
         d="m 372.95,589.91 -0.36,6.13 1.2,5.54 -1.44,3.84 -0.24,6.26 -0.49,3.13 -0.49,6.02 -2.17,3.37 0.73,4.57 -0.96,3.13 0.24,5.05 v 3.84 l -1.68,4.09 -1.44,4.82 -1.2,5.29 -1.2,0.49 -0.24,4.34 0.49,6.02 -0.96,2.66 -0.96,3.37 1.2,1.93 -1.44,0.96 -1.2,4.57 0.49,1.68 2.66,-2.41 0.49,-3.61 v -1.44 l 1.68,-0.96 0.73,2.66 -1.68,4.09 -0.49,4.57 -1.44,4.57 -1.44,-2.17 -1.2,2.66 0.96,2.89 -0.24,0.73 -1.44,0.24 -2.66,2.17 0.24,1.68 2.89,-1.68 1.2,0.96 0.73,0.73 -0.96,2.17 -0.73,1.2 -0.24,2.89 -1.93,-2.41 -0.24,1.2 -1.2,2.41 -0.24,1.2 0.96,2.41 0.24,1.44 2.41,0.73 0.73,-1.93 -0.49,3.84 -2.66,-0.24 v 1.44 l 2.66,2.17 0.49,-1.93 1.68,1.19 -0.49,2.89 h -1.93 l -2.17,0.24 1.44,1.2 0.49,1.44 1.93,-1.19 0.73,1.44 -0.73,0.49 1.44,0.49 1.2,-0.73 1.44,-0.96 v 1.44 l -2.41,0.96 -0.96,1.93 0.49,1.19 0.96,1.93 1.68,0.73 1.93,-0.96 1.44,-0.24 -0.96,1.44 -2.66,0.49 -2.66,-0.73 1.68,2.41 1.68,1.93 1.44,-1.68 v -0.73 l 1.44,0.24 0.96,0.49 2.17,-0.73 -0.24,-1.44 v -1.93 l 0.49,-0.96 2.17,-0.49 0.96,-0.85 -0.24,1.02 -1.81,1.14 -0.42,1.02 0.42,1.19 1.93,-0.12 h 0.73 l -1.31,1.62 -1.14,0.49 0.54,2.05 2.11,0.96 -2.76,-0.12 -0.78,-1.19 -0.73,-1.81 -0.36,0.49 -0.18,1.02 -0.9,-0.42 -1.14,-0.49 h -1.37 l -0.24,1.14 0.96,0.54 0.96,0.78 1.2,-0.49 0.49,-0.31 0.49,0.6 -0.36,0.49 -0.36,0.91 -0.73,0.24 1.14,0.85 0.96,0.54 0.18,0.54 1.5,-0.06 1.14,-0.36 0.67,0.12 -0.85,1.14 -0.73,0.49 1.44,1.44 0.85,0.36 -0.12,-1.2 h 1.31 l 1.02,1.31 1.14,0.54 0.9,0.31 -1.25,-1.86 -0.31,-0.91 -0.18,-0.91 -0.42,-0.36 0.12,-0.96 -0.39,-11.1 -1.28,-0.28 -0.9,-0.49 -0.6,-1.5 -0.24,-0.73 -3.55,-0.73 -2.89,0.18 -1.44,-1.99 v -4.69 l -2.71,0.54 -0.06,-2.35 -0.12,-2.17 -0.73,-2.89 1.02,-1.62 1.31,-3.07 0.36,-3.61 1.99,-1.08 1.08,-3.43 -0.54,-3.78 0.9,-2.71 -1.44,-1.99 -0.54,-3.97 0.18,-2.17 -0.36,-1.81 0.67,-1.62 0.24,-9.38 1.14,-4.15 1.75,-2.17 -1.44,-2.59 -0.36,-5 1.44,-1.81 1.62,-0.73 0.42,-4.87 1.44,-2.53 0.36,-2.89 -1.99,-2.53 -1.08,-3.43 2.29,-6.13 1.08,-6.13 1.93,-3.07 2.23,-0.18 0.36,-1.44 -1.81,-4.15 0.9,-1.44 0.36,-2.89 3.07,-1.81 0.73,-1.44 0.24,-2.7 -2.23,0.18 -1.25,-5.6 -1.14,-0.54 -0.31,-1.08 0.18,-2.7 0.9,-1.81 -1.57,-0.54 -2.41,-4.87 -0.67,0.91 -0.12,1.14 z"
         style="fill:#111d2e;fill-opacity:0.4;stroke:#e6d9c1;stroke-width:0.775673;stroke-miterlimit:4;stroke-dasharray:none;stroke-opacity:1" />
      <path
         id="uy"
         fill="#dddddd"
         stroke="#ffffff"
         stroke-width="0.254105"
         stroke-miterlimit="10"
         d="m 425.52,640.67 0.18,1.62 -1.25,3.43 -2.53,1.25 h -4.69 l -2.17,-0.91 -1.62,-0.91 -1.62,-0.36 -0.9,-1.81 -0.73,-1.62 0.54,-1.81 -0.36,-3.07 1.44,-2.35 0.54,-3.43 1.08,-1.81 2.53,1.08 2.35,2.53 1.44,0.36 6.31,4.34 0.36,1.99 z"
         style="fill:#111d2e;fill-opacity:0.4;stroke:#e6d9c1;stroke-width:0.775673;stroke-miterlimit:4;stroke-dasharray:none;stroke-opacity:1" />
      <path
         id="path74165-7"
         fill="#dddddd"
         stroke="#ffffff"
         stroke-width="0.254105"
         stroke-miterlimit="10"
         d="m 377.99,134.52 -1.32,1.1 2.79,3.6 1.86,2.22 -2.92,0.84 0.4,1.8 2.53,1.52 1.99,1.8 1.6,1.1 2.92,0.42 1.73,-0.28 1.06,-0.56 2.39,-1.94 2.66,-0.28 1.6,1.1 1.46,-1.52 2.26,-1.66 3.05,1.66 2.26,1.8 2.39,0.7 3.19,0.41 1.32,1.24 0.54,1.37 2.92,-0.28 1.06,1.8 -0.67,1.52 -1.32,1.94 2.53,2.08 1.6,2.63 1.46,3.05 1.86,2.91 0.27,3.32 0.27,2.22 0.54,2.36 1.2,2.36 1.06,3.32 0.4,2.5 2.13,4.15 0.93,2.63 -3.05,-1.66 -0.54,-0.7 -0.27,2.63 -1.73,1.37 -0.67,3.32 0.4,2.36 -1.32,3.05 2.92,1.1 2.53,-0.56 0.27,-2.91 0.93,-3.32 1.46,-1.1 0.27,2.63 v 1.66 l 2.92,0.84 -1.46,1.94 -0.67,1.37 4.79,1.24 1.2,2.08 1.2,1.37 0.13,2.08 -1.86,0.96 -2.39,0.28 -2.66,-1.8 -3.19,-1.24 -2.66,0.96 -0.4,2.22 3.71,1.66 4.65,0.96 1.86,1.52 2.53,-0.14 0.4,1.1 -0.8,1.66 0.8,3.46 v 3.18 h -2.78 l 0.54,3.05 -0.27,2.5 2.66,3.6 1.06,2.08 -1.86,2.22 -5.72,-2.5 -4.26,-0.84 0.67,2.63 5.58,1.24 v 0.84 l -5.19,0.28 -0.67,2.08 2.79,1.24 v 1.24 l -2.79,1.66 4.65,3.18 -1.99,1.24 -0.4,1.37 4.4,5.96 -0.93,2.36 5.32,-2.22 -0.4,3.87 -4.92,3.87 3.98,4.71 3.19,1.66 0.67,1.94 0.13,2.36 0.93,1.66 0.54,1.8 v 2.22 l 2.79,1.24 1.46,2.22 3.19,1.52 1.99,0.28 2.79,1.94 3.05,1.52 1.46,-0.41 0.54,-2.36 1.46,-1.24 1.99,-2.76 0.8,-2.08 1.46,-1.52 -2.53,-4.15 0.67,-1.66 3.19,-3.87 0.54,-1.94 0.8,-3.05 -0.27,-3.18 2.26,-1.8 0.93,-3.87 0.67,-0.96 1.6,-1.24 4.26,-3.46 0.54,-3.6 1.2,-0.14 1.32,2.63 1.2,0.96 1.46,-0.41 0.27,-2.91 2.39,0.96 4.79,-6.36 2.13,-3.05 1.2,-2.08 0.8,-3.32 1.2,-2.22 2.53,2.22 h 4.12 l 3.32,-1.24 2.39,-1.52 2.66,-1.24 5.45,-2.76 2.13,-1.8 0.54,-2.22 3.71,-2.63 2.26,-2.76 1.99,-1.52 -4.79,-0.28 -2.39,-1.94 -3.72,0.56 -2.66,1.8 -4.4,0.84 -1.86,-0.56 4.4,-2.08 -6.5,-0.42 v -2.63 l 4.26,-1.52 -0.4,-1.24 -1.46,-1.52 0.8,-1.37 1.06,-1.24 v -4.3 l 5.19,2.5 4.65,3.18 1.73,0.14 1.86,7.2 2.66,-2.08 1.6,3.05 1.06,-7.05 -0.13,-4.71 -1.06,1.24 -1.86,0.96 -2.92,-1.94 3.46,-2.5 2.39,-1.52 h -4.39 l -1.73,-0.96 -0.4,-3.32 -2.26,-1.52 -2.92,1.37 -2.13,-2.08 4.4,-2.08 0.8,-0.84 -2.13,-1.52 -4.12,1.8 -1.46,-2.08 5.19,-1.94 -1.6,-1.8 -2.66,-0.41 3.71,-1.24 1.32,-2.5 0.27,-1.66 1.73,0.56 3.05,-2.22 2.79,2.08 -3.85,1.24 7.72,4.98 -0.67,-3.46 2.66,-0.41 0.27,-2.36 -0.4,-2.76 -5.32,-1.66 -1.73,-0.84 2.53,-1.24 -0.4,-2.63 3.72,0.14 -0.81,3.32 3.98,1.52 -0.27,-2.36 3.85,-0.28 -0.8,-2.76 -3.46,-0.14 -1.6,-2.76 -1.06,-2.22 -2.26,-1.24 3.32,-0.56 -1.46,-3.73 2.66,0.42 2.66,3.18 0.54,-3.6 -0.27,-2.91 -1.2,-1.8 -2.66,-1.52 5.32,-2.5 -2.53,-2.36 -1.86,-1.8 -1.99,-2.36 1.06,-1.1 -0.67,-1.8 9.56,1.8 0.4,-4.98 2.26,-1.1 -2.79,-2.08 -3.46,-0.41 -0.54,-3.46 4.39,-0.14 -1.2,-2.5 -4.4,-2.5 -3.32,3.87 0.54,-4.57 0.93,-2.76 0.27,-2.36 0.13,-2.76 -0.67,-3.18 3.05,-1.66 h 2.13 l 0.27,-1.8 0.13,-2.08 1.6,-1.94 -1.2,-1.37 -0.54,-0.96 0.54,-2.5 1.32,-2.91 1.99,-0.42 h 1.2 l 1.46,-1.8 0.13,-2.5 -1.2,-1.8 -4.92,0.28 -2.26,3.32 -0.67,0.84 1.73,-4.29 0.27,-3.18 4.4,1.52 4.92,-0.42 2.53,-1.8 0.54,-2.08 -4.26,-2.91 -3.59,0.56 -3.32,-2.36 -3.85,1.94 7.32,-2.08 3.98,-0.56 3.32,1.66 3.98,-2.22 2.13,-2.5 0.67,-2.63 -1.6,-0.28 2.92,-1.8 2.79,-2.5 1.73,-4.3 1.32,-0.7 -2.13,-2.63 -2.66,-1.8 -2.92,-2.08 -3.71,-1.37 -3.59,0.7 -0.4,3.05 -0.54,2.63 -1.6,2.77 -0.93,0.7 -4.12,-2.08 -3.32,-1.94 -1.86,2.08 -2.26,3.46 -1.46,3.6 -1.32,2.77 -2.13,2.91 -2.66,2.08 -1.6,0.96 2.66,-6.09 2.13,-2.36 1.99,-3.05 1.32,-3.18 1.06,-2.91 0.27,-2.77 v -2.91 l -1.46,-4.84 -5.98,0.42 -0.4,3.05 0.67,3.73 -2.26,1.52 -3.19,1.24 -2.53,1.24 -2.13,1.1 -1.6,-1.52 5.32,-2.76 1.73,-1.37 0.8,-1.52 V 53.6 l -0.4,-1.24 -2.53,0.7 v 2.63 l -3.98,0.28 -0.67,-2.5 -0.8,-0.56 -5.58,0.14 -2.66,0.14 -1.73,0.14 -2.92,1.52 -3.59,1.1 -2.53,0.7 -2.92,2.22 -1.73,-3.32 5.72,-2.22 2.79,-1.66 4.4,-2.08 3.59,-0.56 5.05,0.41 5.32,0.28 2.53,-0.96 3.71,-2.36 2.66,-2.5 2.26,-3.32 0.8,-1.52 -3.05,-3.73 -3.71,-1.66 -2.13,-0.96 -1.46,-0.84 -2.92,1.94 1.32,-3.87 -1.2,-3.6 -2.92,0.42 -2.66,0.84 -5.99,-0.28 -3.71,-0.56 -2.66,0.7 -5.05,2.76 -3.98,0.7 -2.13,1.66 -3.05,1.37 -1.2,-3.32 4.65,-0.14 4.79,-2.08 -0.8,-1.94 -3.98,-0.96 14.75,-0.14 3.46,0.56 7.85,-1.37 0.14,-2.36 -2.39,-3.32 -5.98,-0.28 -2.53,-2.08 -2.92,-1.37 -2.53,-0.84 -2.92,-0.7 -3.46,-0.14 -2.79,0.84 -1.86,0.28 -3.32,1.37 -2.39,0.7 -0.4,2.36 -2.92,0.96 6.9,5.68 -3.05,-1.24 -2.79,1.52 -0.8,0.96 -0.54,1.37 -2.39,0.41 -1.32,2.08 -4.79,-1.37 -2.39,-3.46 -5.45,-1.24 -0.67,0.28 -2.53,1.37 -0.8,0.84 -0.13,3.32 0.93,1.66 6.63,1.1 2.79,1.1 2.79,2.36 0.4,1.37 -0.67,3.18 -2.53,-1.8 -3.85,-5.13 -4.79,-0.14 -3.05,0.28 -0.4,1.66 2.39,4.57 1.32,3.87 2.66,1.66 -4.26,0.84 -1.2,-0.7 0.14,-2.91 -3.19,-5.4 -2.66,-1.52 -1.73,2.08 2.53,5.68 1.99,2.22 1.2,1.94 0.93,2.5 1.32,3.6 0.67,3.32 -1.86,0.56 -4.4,-5.13 -1.32,-3.05 -3.72,-4.29 -3.19,-3.6 -2.13,-1.66 -3.59,-0.28 1.06,4.44 2.26,5.96 1.99,3.05 -2.26,1.37 -5.45,-3.05 -1.99,0.84 -1.2,3.46 -0.54,1.66 -0.8,0.42 -2.53,-3.46 0.54,-4.29 0.54,-2.5 -2.39,-2.77 -2.53,0.7 -1.32,1.24 -0.8,1.1 -3.85,0.84 -2.39,0.42 -1.86,1.1 -1.32,2.22 0.93,2.22 2.92,2.36 1.86,1.24 1.2,2.08 -5.05,-0.84 -2.79,-3.87 -1.32,-2.22 -3.46,3.6 0.67,2.63 1.86,2.5 -1.46,2.77 -0.67,0.96 4.79,7.62 v 0.7 l -3.32,-0.56 -4.79,-4.3 -1.6,-1.37 -1.06,2.5 -3.85,3.05 1.2,2.77 -5.72,3.32 -0.8,1.24 -0.67,2.08 -0.14,2.91 0.27,2.76 3.46,1.52 6.11,-1.37 2.39,-0.7 -5.58,2.22 0.93,4.15 0.13,0.7 -0.67,3.32 -1.2,2.36 -1.32,2.22 -2.26,1.52 -7.72,0.28 -3.32,2.63 -1.2,2.76 -4.79,3.73 -1.86,2.08 v 3.6 l 0.4,1.94 4.26,2.5 2.39,0.96 0.93,2.08 1.2,1.37 h 3.19 l 3.19,-1.24 2.39,-0.42 2.13,1.66 -1.06,1.8 -5.32,0.14 -1.32,0.56 -0.67,1.66 -6.11,-1.66 -1.06,1.37 z"
         style="fill:#111d2e;fill-opacity:0.4;stroke:#e6d9c1;stroke-width:0.775673;stroke-miterlimit:4;stroke-dasharray:none;stroke-opacity:1" />
      <path
         id="path4307"
         fill="#dddddd"
         stroke="#ffffff"
         stroke-width="0.254105"
         d="m 364.04,462.47 -1.31,0.24 -0.24,0.96 2.05,0.24 0.12,-1.57 z"
         style="fill:#111d2e;fill-opacity:0.4;stroke:#e6d9c1;stroke-width:0.775673;stroke-miterlimit:4;stroke-dasharray:none;stroke-opacity:1" />
      <path
         id="path4329"
         fill="#dddddd"
         stroke="#ffffff"
         stroke-width="0.254105"
         d="m 251.29,617.69 -2.89,0.73 2.17,1.44 1.44,-1.44 z"
         style="fill:#111d2e;fill-opacity:0.4;stroke:#e6d9c1;stroke-width:0.775673;stroke-miterlimit:4;stroke-dasharray:none;stroke-opacity:1" />
    </g>
    <path
       id="path1036"
       style="fill:#185099;fill-opacity:1;stroke:none;stroke-width:4.99999;stroke-linecap:round;stroke-linejoin:round;stroke-opacity:1"
       d="m 93.084439,224.4089 c -2.186421,0 -3.968602,1.78247 -3.968602,3.96889 0,2.18642 1.782181,3.96861 3.968602,3.96861 2.186421,0 3.968898,-1.78219 3.968898,-3.96861 0,-2.18642 -1.782477,-3.96889 -3.968898,-3.96889 z m 0,0.91825 c 1.690293,0 3.050649,1.36035 3.050649,3.05064 0,1.6903 -1.360356,3.05065 -3.050649,3.05065 -1.69029,0 -3.050651,-1.36035 -3.050651,-3.05065 0,-1.69029 1.360361,-3.05064 3.050651,-3.05064 z m -0.0172,0.77355 a 2.2770908,2.2770908 0 0 0 -2.259896,2.27709 2.2770908,2.2770908 0 0 0 2.277091,2.2771 2.2770908,2.2770908 0 0 0 2.277092,-2.2771 2.2770908,2.2770908 0 0 0 -2.277092,-2.27709 2.2770908,2.2770908 0 0 0 -0.0172,0 z" />
    <path
       id="path1036-8"
       style="fill:#185099;fill-opacity:1;stroke:none;stroke-width:4.99999;stroke-linecap:round;stroke-linejoin:round;stroke-opacity:1"
       d="m 209.11842,380.56274 c -2.18643,0 -3.96861,1.78248 -3.96861,3.9689 0,2.18642 1.78218,3.9686 3.96861,3.9686 2.18642,0 3.96889,-1.78218 3.96889,-3.9686 0,-2.18642 -1.78247,-3.9689 -3.96889,-3.9689 z m 0,0.91825 c 1.69029,0 3.05064,1.36035 3.05064,3.05065 0,1.69029 -1.36035,3.05064 -3.05064,3.05064 -1.69029,0 -3.05065,-1.36035 -3.05065,-3.05064 0,-1.6903 1.36036,-3.05065 3.05065,-3.05065 z m -0.0172,0.77355 a 2.2770908,2.2770908 0 0 0 -2.2599,2.2771 2.2770908,2.2770908 0 0 0 2.27709,2.27709 2.2770908,2.2770908 0 0 0 2.2771,-2.27709 2.2770908,2.2770908 0 0 0 -2.2771,-2.2771 2.2770908,2.2770908 0 0 0 -0.0172,0 z" />
  </g>
</svg>
